<svg xmlns="http://www.w3.org/2000/svg" xmlns:xlink="http://www.w3.org/1999/xlink" xmlns:inkscape="http://www.inkscape.org/namespaces/inkscape" version="1.1" width="450.872" height="148.982" viewBox="0 0 450.872 148.982">
<defs>
<path id="font_1_3" d="M.1559906 .5503235H.22799683C.31999208 .5503235 .3639984 .491333 .3639984 .44334413 .3639984 .3943634 .31900025 .33638 .22799683 .33638H.1559906V.5503235M.34799195 .30438233C.4139862 .3413849 .43299867 .402359 .43299867 .44334413 .43299867 .5293274 .35699464 .6113281 .23899842 .6113281H.06199646C.04598999 .6113281 .021987915 .6113281 .021987915 .58032229 .021987915 .5503235 .04699707 .5503235 .06199646 .5503235H.08699036V.06098938H.06199646C.04598999 .06098938 .021987915 .06098938 .021987915 .02999878 .021987915 0 .04699707 0 .06199646 0H.18099976C.19599915 0 .22099304 0 .22099304 .02999878 .22099304 .06098938 .19699097 .06098938 .18099976 .06098938H.1559906V.27539063H.23399353C.25299073 .27539063 .2829895 .27539063 .31498719 .24736023 .33699037 .22634888 .33699037 .2043457 .33699037 .162323 .33699037 .09727478 .33699037 .06726074 .35598756 .035247804 .37298585 .0052490236 .40098573-.0107421879 .43499757-.0107421879 .49798585-.0107421879 .5219879 .055252077 .5219879 .09327698 .5219879 .12528992 .49798585 .12528992 .4869995 .12528992 .47698976 .12528992 .45399476 .12528992 .45298768 .09527588 .45298768 .087265018 .45098878 .050247194 .43399049 .050247194 .4059906 .050247194 .4059906 .09628296 .4059906 .14930725 .4059906 .21234131 .4059906 .22035218 .39698792 .24336243 .3849945 .27238465 .3619995 .29338075 .34799195 .30438233Z"/>
<path id="font_1_1" d="M.29699708 .5503235H.40499879C.41999818 .5503235 .44599916 .5503235 .44599916 .58032229 .44599916 .6113281 .41999818 .6113281 .40499879 .6113281H.11999512C.10499573 .6113281 .07899475 .6113281 .07899475 .5813141 .07899475 .5503235 .10499573 .5503235 .11999512 .5503235H.22799683V.06098938H.11999512C.10499573 .06098938 .07899475 .06098938 .07899475 .0309906 .07899475 0 .10499573 0 .11999512 0H.40499879C.41999818 0 .44599916 0 .44599916 .02999878 .44599916 .06098938 .41999818 .06098938 .40499879 .06098938H.29699708V.5503235Z"/>
<path id="font_2_15" d="M.74398806 .677124C.74398806 .6941223 .74398806 .703125 .7299957 .703125 .7259979 .703125 .72099307 .703125 .71299746 .69111636L.6599884 .6151428C.6179962 .65711978 .548996 .703125 .45298768 .703125 .24299622 .703125 .069992069 .5411835 .069992069 .34228517 .069992069 .13938904 .24598694-.01953125 .45298768-.01953125 .6299896-.01953125 .74398806 .1124115 .74398806 .23434448 .74398806 .24534607 .7429962 .25334168 .72698977 .25334168 .72099307 .25334168 .71099856 .25334168 .70999148 .24034119 .70199587 .079422 .56599429 .016464234 .46699525 .016464234 .3600006 .016464234 .1769867 .0814209 .1769867 .34129334 .1769867 .61213687 .37098695 .66711428 .46499635 .66711428 .56399539 .66711428 .6819916 .6011505 .70799258 .429245 .70999148 .4172516 .71899417 .4172516 .7259979 .4172516 .74398806 .4172516 .74398806 .4232483 .74398806 .4432373V.677124Z"/>
<path id="font_2_31" d="M.5289917 .21325684C.5289917 .3382721 .42199708 .44628907 .28399659 .44628907 .1459961 .44628907 .038986207 .3382721 .038986207 .21325684 .038986207 .0892334 .14898682-.009765625 .28399659-.009765625 .4189911-.009765625 .5289917 .0892334 .5289917 .21325684M.28399659 .022232056C.24699402 .022232056 .19299317 .034225465 .1599884 .083236698 .1329956 .12423706 .12998963 .17625427 .12998963 .22225952 .12998963 .2652588 .1309967 .32426454 .1659851 .36727906 .19099427 .39627076 .23298645 .41827394 .28399659 .41827394 .34298707 .41827394 .3849945 .39027406 .40699769 .3592682 .43499757 .32026673 .43798829 .27026368 .43798829 .22225952 .43798829 .17424011 .43499757 .12124634 .4059906 .08023071 .3789978 .042236329 .33299256 .022232056 .28399659 .022232056Z"/>
<path id="font_2_35" d="M.36099244 .43040467V.39439393C.42799378 .39439393 .43598939 .3874054 .43598939 .3383789V.16729737C.43598939 .07925415 .3789978 .018234253 .30299378 .018234253 .21199036 .018234253 .20799256 .06124878 .20799256 .11227417V.44140626L.053985597 .43040467V.39439393C.1289978 .39439393 .1289978 .3914032 .1289978 .3023529V.15228272C.1289978 .08325195 .1289978-.009765625 .29599-.009765625 .31799317-.009765625 .3909912-.009765625 .43899537 .07424927H.43998719V-.009765625L.58999636 .00022888184V.036239625C.522995 .036239625 .5149994 .04324341 .5149994 .09225464V.44140626L.36099244 .43040467Z"/>
<path id="font_2_30" d="M.5149994 .3032837C.5149994 .3903656 .47200013 .44140626 .36499024 .44140626 .2829895 .44140626 .22999573 .39637757 .20199585 .34432984H.20098877V.44140626L.053985597 .43040467V.39437867C.12098694 .39437867 .1289978 .38737489 .1289978 .33831788V.07904053C.1289978 .035995485 .11898804 .035995485 .053985597 .035995485V0C.055999757 0 .12599182 .0039978029 .16799927 .0039978029 .20498657 .0039978029 .27398683 .0009918213 .2829895 0V.035995485C.21798706 .035995485 .20799256 .035995485 .20799256 .07904053V.25923158C.20799256 .36434938 .29100038 .4133911 .35699464 .4133911 .4269867 .4133911 .43598939 .3583374 .43598939 .3072815V.07904053C.43598939 .035995485 .42599488 .035995485 .36099244 .035995485V0C.36299134 0 .43299867 .0039978029 .47499085 .0039978029 .5119934 .0039978029 .58099368 .0009918213 .58999636 0V.035995485C.5249939 .035995485 .5149994 .035995485 .5149994 .07904053V.3032837Z"/>
<path id="font_2_34" d="M.20098877 .39465333H.35699464V.43066407H.20098877V.6147156H.16699219C.1659851 .5246887 .125 .42565919 .0289917 .4226532V.39465333H.12199402V.1250763C.12199402 .01322937 .20599365-.009765625 .2619934-.009765625 .32899476-.009765625 .375 .047195436 .375 .12606812V.1809845H.34098817V.12705994C.34098817 .059173585 .30899049 .022232056 .269989 .022232056 .20098877 .022232056 .20098877 .10609436 .20098877 .124069217V.39465333Z"/>
<path id="font_2_2" d="M.31399537 .18101502V.24902344H.019989014V.18101502H.31399537Z"/>
<path id="font_2_20" d="M.19898987 .69433596 .04899597 .68333438V.6473236C.116989139 .6473236 .12399292 .639328 .12399292 .58935549V.00022888184H.1579895L.19299317 .06124878C.23098755 .011230469 .28599549-.009765625 .33898927-.009765625 .47099305-.009765625 .58399966 .089263919 .58399966 .2163086 .58399966 .33836366 .48098756 .44140626 .34999085 .44140626 .2899933 .44140626 .23498535 .41740418 .19898987 .38137818V.69433596M.20298767 .33535768C.23098755 .38137818 .2849884 .4133911 .34498597 .4133911 .40098573 .4133911 .44099427 .38137818 .46099855 .35136415 .48098756 .32235719 .49299623 .28334046 .49299623 .21731568 .49299623 .19430542 .49299623 .119277957 .45199586 .072250369 .4119873 .027236939 .36299134 .018234253 .33399964 .018234253 .2539978 .018234253 .21398926 .08125305 .20298767 .102264408V.33535768Z"/>
<path id="font_2_19" d="M.44599916 .26823426C.44599916 .32154847 .44599916 .35954286 .3999939 .3965149 .35899354 .4302826 .31098939 .44628907 .2519989 .44628907 .15699768 .44628907 .08999634 .41036988 .08999634 .34954835 .08999634 .31755067 .11199951 .30055238 .13798523 .30055238 .16499329 .30055238 .18499756 .32054139 .18499756 .34754945 .18499756 .36454774 .1769867 .38554383 .1499939 .3935547 .18598938 .41827394 .24398804 .41827394 .25 .41827394 .30599977 .41827394 .36698915 .38154603 .36698915 .29751588V.2662201C.31199647 .2642212 .24598694 .26123048 .17298889 .23422241 .08299255 .20123291 .054992677 .14622498 .054992677 .10122681 .054992677 .0152282719 .15899658-.009765625 .22999573-.009765625 .30999757-.009765625 .35699464 .035232545 .37799073 .07423401 .38198854 .033233644 .40899659-.004776001 .45498658-.004776001 .45700074-.004776001 .55400088-.004776001 .55400088 .09022522V.14523316H.519989V.0912323C.519989 .081222537 .519989 .033233644 .48298646 .033233644 .44599916 .033233644 .44599916 .08023071 .44599916 .0932312V.26823426M.36698915 .1412201C.36698915 .04522705 .2829895 .018234253 .23799134 .018234253 .18699646 .018234253 .13899231 .052230836 .13899231 .10122681 .13899231 .15621948 .18699646 .23323059 .36698915 .24023438V.1412201Z"/>
<path id="font_2_33" d="M.3789978 .4202881C.3789978 .43728639 .3789978 .44628907 .36499024 .44628907 .3600006 .44628907 .35798646 .44628907 .34498597 .4342804 .34298707 .43328858 .33299256 .4242859 .32699586 .419281 .29699708 .4402771 .25898744 .44628907 .22200012 .44628907 .07899475 .44628907 .04499817 .37127687 .04499817 .3212738 .04499817 .28926087 .05899048 .2632599 .08299255 .24325562 .12098694 .21025086 .15899658 .20324707 .22099304 .19325257 .2709961 .18424988 .35198976 .17024231 .35198976 .10324097 .35198976 .0642395 .32499696 .018234253 .22898865 .018234253 .1329956 .018234253 .09799194 .08123779 .07998657 .14924622 .07699585 .1622467 .07598877 .1662445 .06199646 .1662445 .04499817 .1662445 .04499817 .15924073 .04499817 .13923645V.016220093C.04499817-.00077819827 .04499817-.009765625 .05899048-.009765625 .067993167-.009765625 .08699036 .011230469 .10699463 .033233644 .15098572-.0077667238 .20498657-.009765625 .22898865-.009765625 .35899354-.009765625 .40699769 .06022644 .40699769 .13124085 .40699769 .16925049 .3899994 .19924927 .3639984 .22325135 .32598878 .258255 .27999879 .26626588 .24499512 .27226258 .16499329 .28627015 .099990848 .29826356 .099990848 .35127259 .099990848 .38327027 .1269989 .422287 .22200012 .422287 .33799745 .422287 .34298707 .34127809 .34498597 .31227113 .34599305 .30126954 .35798646 .30126954 .3619995 .30126954 .3789978 .30126954 .3789978 .30827333 .3789978 .3272705V.4202881Z"/>
<path id="font_2_23" d="M.43998719 .22851563C.46099855 .22851563 .46798707 .22851563 .46798707 .25050355 .46798707 .33839417 .4189911 .44628907 .269989 .44628907 .13899231 .44628907 .038986207 .34239198 .038986207 .21949768 .038986207 .092315677 .1499939-.009765625 .2829895-.009765625 .41799928-.009765625 .46798707 .09832764 .46798707 .12036133 .46798707 .12435913 .46598817 .13438416 .45098878 .13438416 .43798829 .13438416 .43598939 .12837219 .43299867 .11836243 .4019928 .037246705 .32598878 .022232056 .2899933 .022232056 .24299622 .022232056 .19799805 .043258668 .16799927 .08131409 .1309967 .12837219 .12998963 .18945313 .12998963 .22851563H.43998719M.1309967 .25450135C.14199829 .39530946 .23199463 .41827394 .269989 .41827394 .3929901 .41827394 .39698792 .27947999 .397995 .25450135H.1309967Z"/>
<path id="font_2_22" d="M.35598756 .68333438V.6473236C.4229889 .6473236 .43099977 .6403351 .43099977 .59135439V.38438417C.3939972 .4203949 .34599305 .44140626 .29100038 .44140626 .1579895 .44140626 .04598999 .34136964 .04598999 .21531677 .04598999 .09025574 .1519928-.009765625 .2789917-.009765625 .36099244-.009765625 .4099884 .034240724 .4269867 .052246095V-.009765625L.58099368 .00022888184V.036239625C.5139923 .036239625 .5059967 .04324341 .5059967 .09225464V.69433596L.35598756 .68333438M.4269867 .105270389C.40098573 .058242799 .34999085 .018234253 .2849884 .018234253 .22898865 .018234253 .18899536 .051239015 .16899109 .08026123 .14898682 .11026001 .13699341 .15028382 .13699341 .21430969 .13699341 .23731995 .13699341 .3123474 .17799378 .359375 .21798706 .40438844 .2669983 .4133911 .29599 .4133911 .34399415 .4133911 .3869934 .39138795 .4149933 .3553772 .4269867 .33937074 .4269867 .33836366 .4269867 .3193512V.105270389Z"/>
<path id="font_2_11" d="M.21899414 .37265016C.21899414 .4076538 .19099427 .43066407 .1619873 .43066407 .1269989 .43066407 .10398865 .40264894 .10398865 .37365724 .10398865 .33865357 .13198853 .31565858 .16099549 .31565858 .19599915 .31565858 .21899414 .34365846 .21899414 .37265016M.21899414 .056991579C.21899414 .09199524 .19099427 .114990238 .1619873 .114990238 .1269989 .114990238 .10398865 .08699036 .10398865 .057998659 .10398865 .022994996 .13198853 0 .16099549 0 .19599915 0 .21899414 .027999878 .21899414 .056991579Z"/>
<path id="font_2_29" d="M.82199099 .3032837C.82199099 .3903656 .7789917 .44140626 .6719971 .44140626 .59298709 .44140626 .5389862 .39837647 .5119934 .34832765 .49198915 .41940309 .43798829 .44140626 .36499024 .44140626 .2829895 .44140626 .22999573 .39637757 .20199585 .34432984H.20098877V.44140626L.053985597 .43040467V.39437867C.12098694 .39437867 .1289978 .38737489 .1289978 .33831788V.07904053C.1289978 .035995485 .11898804 .035995485 .053985597 .035995485V0C.055999757 0 .12599182 .0039978029 .16799927 .0039978029 .20498657 .0039978029 .27398683 .0009918213 .2829895 0V.035995485C.21798706 .035995485 .20799256 .035995485 .20799256 .07904053V.25923158C.20799256 .36434938 .29100038 .4133911 .35699464 .4133911 .4269867 .4133911 .43598939 .3583374 .43598939 .3072815V.07904053C.43598939 .035995485 .42599488 .035995485 .36099244 .035995485V0C.36299134 0 .43299867 .0039978029 .47499085 .0039978029 .5119934 .0039978029 .58099368 .0009918213 .58999636 0V.035995485C.5249939 .035995485 .5149994 .035995485 .5149994 .07904053V.25923158C.5149994 .36434938 .59799197 .4133911 .6639862 .4133911 .73399356 .4133911 .7429962 .3583374 .7429962 .3072815V.07904053C.7429962 .035995485 .73298647 .035995485 .66799929 .035995485V0C.66999819 0 .73999026 .0039978029 .7819977 .0039978029 .81900027 .0039978029 .8880005 .0009918213 .8969879 0V.035995485C.83200076 .035995485 .82199099 .035995485 .82199099 .07904053V.3032837Z"/>
<path id="font_3_5" d="M.44999696 .5780792C.44999696 .5930786 .44999696 .62109377 .4169922 .62109377 .3999939 .62109377 .3869934 .61408999 .37799073 .5790863 .3600006 .5920868 .31698609 .62109377 .23999024 .62109377 .1309967 .62109377 .052993776 .54408267 .052993776 .45510865 .052993776 .39813233 .085998538 .35914613 .09498596 .35014344 .13598633 .30815126 .16499329 .30215455 .23899842 .28515626L.2789917 .27516175C.33799745 .2621765 .34999085 .25917054 .37399293 .23718262 .3909912 .22117615 .4059906 .19418335 .4059906 .16319275 .4059906 .11021423 .36299134 .056228639 .28799439 .056228639 .24598694 .056228639 .1349945 .06523132 .1289978 .16419983 .12799073 .18319702 .1269989 .20318604 .09098816 .20318604 .052993776 .20318604 .052993776 .17819214 .052993776 .16020203V.033233644C.052993776 .018234253 .052993776-.009765625 .085998538-.009765625 .09799194-.009765625 .114990238-.0067749025 .125 .031219483 .17199707 .00022888184 .23799134-.009765625 .2869873-.009765625 .40499879-.009765625 .47698976 .07922363 .47698976 .16819763 .47698976 .21018982 .46099855 .25416566 .42799378 .28915406 .3899994 .32815553 .35899354 .33514405 .27398683 .35514833 .23699951 .36314393 .20799256 .37013246 .20199585 .37113954 .1639862 .3821411 .12399292 .41412355 .12399292 .4611206 .12399292 .50909426 .17098999 .5550842 .23999024 .5550842 .35499574 .5550842 .36898805 .46611024 .37399293 .43511964 .3789978 .40812684 .4019928 .40812684 .4119873 .40812684 .44999696 .40812684 .44999696 .43211366 .44999696 .45111085V.5780792Z"/>
<path id="font_3_3" d="M.47299195 .30516053C.47299195 .5940857 .45199586 .62109377 .2649994 .62109377 .07899475 .62109377 .056991579 .5940857 .056991579 .30615235 .056991579 .017227173 .07798767-.009765625 .2649994-.009765625 .45098878-.009765625 .47299195 .017227173 .47299195 .30516053M.2649994 .056228639C.17999268 .056228639 .1559906 .07722473 .14498902 .12321472 .1329956 .17419434 .1329956 .25616456 .1329956 .31414796 .1329956 .38113404 .1329956 .4401245 .14399719 .48809815 .15699768 .5450897 .19099427 .5550842 .2649994 .5550842 .34799195 .5550842 .375 .5410919 .3880005 .48310853 .39698792 .4381256 .39698792 .36813355 .39698792 .31414796 .39698792 .25616456 .39698792 .18119812 .3869934 .13121033 .37599183 .081222537 .35699464 .056228639 .2649994 .056228639Z"/>
<path id="font_2_4" d="M.49299623 .70700076C.49798585 .71899417 .49798585 .72299197 .49798585 .72499087 .49798585 .74198916 .48399354 .75 .47399903 .75 .45700074 .75 .45199586 .73799136 .44699098 .72499087L.07499695-.20700073C.069992069-.2190094 .069992069-.2230072 .069992069-.2250061 .069992069-.2420044 .083999637-.25 .09399414-.25 .11099243-.25 .115997318-.23800659 .12098694-.2250061L.49299623 .70700076Z"/>
<path id="font_2_21" d="M.3889923 .39941407C.37098695 .3914032 .36099244 .375412 .36099244 .3554077 .36099244 .32839967 .37998963 .30841065 .4079895 .30841065 .43499757 .30841065 .45599366 .32540895 .45599366 .35740663 .45599366 .44628907 .31698609 .44628907 .2889862 .44628907 .13899231 .44628907 .04598999 .33140565 .04598999 .21635437 .04598999 .090270999 .15299988-.009765625 .28399659-.009765625 .43299867-.009765625 .46798707 .10827637 .46798707 .120285037 .46798707 .1322937 .45498658 .1322937 .45098878 .1322937 .43798829 .1322937 .43699647 .12928772 .43199159 .11528015 .4099884 .053253175 .35699464 .022232056 .29599 .022232056 .22698975 .022232056 .13699341 .07325745 .13699341 .21734619 .13699341 .34440614 .19898987 .41427613 .2919922 .41427613 .30499269 .41427613 .35299684 .41427613 .3889923 .39941407Z"/>
<path id="font_2_24" d="M.14399719 .17845154C.15899658 .16944885 .19499207 .14746094 .25299073 .14746094 .35598756 .14746094 .43099977 .21644593 .43099977 .29441834 .43099977 .3334198 .41299439 .3644104 .3889923 .39039613 .43399049 .4223938 .47299195 .42340089 .48999024 .42340089 .48599244 .41940309 .48098756 .41540528 .48098756 .3993988 .48098756 .3794098 .49598695 .36740113 .5130005 .36740113 .5269928 .36740113 .54499819 .3774109 .54499819 .40040589 .54499819 .42340089 .526001 .45140077 .48599244 .45140077 .47099305 .45140077 .4169922 .44839479 .36999513 .4053955 .33999635 .42739869 .2979889 .44140626 .2539978 .44140626 .15098572 .44140626 .07598877 .372406 .07598877 .29441834 .07598877 .25543214 .09599304 .21943665 .12399292 .19345093 .115997318 .18444824 .09399414 .15145874 .09399414 .112213138 .09399414 .099121097 .09700012 .05192566 .13598633 .022918702 .09098816 .0079193119 .038986207-.02508545 .038986207-.0770874 .038986207-.15008545 .14898682-.20507813 .28399659-.20507813 .41099549-.20507813 .5289917-.15509033 .5289917-.0750885 .5289917-.045074464 .5169983 .008926392 .46199037 .03892517 .40299989 .06991577 .34399415 .06991577 .24699402 .06991577 .22499085 .06991577 .18899536 .06991577 .18099976 .07092285 .14898682 .07797241 .1309967 .108184818 .1309967 .13739014 .1309967 .16246033 .13798523 .17045594 .14399719 .17845154M.2539978 .17745972C.1559906 .17745972 .1559906 .2734375 .1559906 .29441834 .1559906 .3104248 .1559906 .3504181 .17599488 .3764038 .18998719 .3934021 .21699524 .4113922 .25299073 .4113922 .35099793 .4113922 .35099793 .31541444 .35099793 .29441834 .35099793 .27842713 .35099793 .23843384 .33099366 .21244812 .31698609 .19544983 .2899933 .17745972 .2539978 .17745972M.2539978 .0029296876C.34298707 .0029296876 .46798707 .0029296876 .46798707-.07608032 .46798707-.12908936 .3889923-.17507935 .28399659-.17507935 .1789856-.17507935 .099990848-.12808228 .099990848-.07608032 .099990848-.04107666 .13198853 .0019226074 .19599915 .0029296876H.2539978Z"/>
<path id="font_2_26" d="M.21099854 .6168213C.21099854 .645813 .18699646 .6738281 .15299988 .6738281 .12298584 .6738281 .09599304 .64982607 .09599304 .6168213 .09599304 .5808258 .125 .55882266 .15299988 .55882266 .18499756 .55882266 .21099854 .5838165 .21099854 .6168213M.05899048 .43040467V.39439393C.12199402 .39439393 .1309967 .38839723 .1309967 .3393402V.07904053C.1309967 .035995485 .12098694 .035995485 .055999757 .035995485V0C.057998659 0 .12799073 .0039978029 .16799927 .0039978029 .20298767 .0039978029 .23899842 .0029907227 .27398683 0V.035995485C.21598816 .035995485 .20599365 .035995485 .20599365 .07803345V.44140626L.05899048 .43040467Z"/>
<path id="font_2_36" d="M.47399903 .3327484C.5019989 .3936615 .5519867 .39465333 .56799319 .39465333V.43066407C.54299929 .4286499 .5169983 .426651 .49198915 .426651 .46499635 .426651 .42799378 .42765809 .40098573 .43066407V.39465333C.44299317 .39265443 .44299317 .3597107 .44299317 .3567047 .44299317 .3517151 .44198609 .34173585 .43499757 .3277588L.32199098 .08111572 .19799805 .35272218C.19799805 .353714 .19198609 .36470033 .19198609 .37168885 .19198609 .39465333 .22599793 .39465333 .24299622 .39465333V.43066407C.24099732 .43066407 .16999817 .426651 .1289978 .426651 .09899902 .426651 .05999756 .42765809 .0309906 .43066407V.39465333C.085998538 .39465333 .09799194 .39265443 .11299133 .3587036L.2709961 .011230469C.27598573-.00077819827 .28199769-.009765625 .29899598-.009765625 .31799317-.009765625 .32199098-.00077819827 .32699586 .010223389L.47399903 .3327484Z"/>
<path id="font_2_18" d="M.5019989 .34111024C.59199526 .36210633 .6819916 .42100526 .6819916 .5018616 .6819916 .6016846 .5499878 .6826172 .394989 .6826172H.057998659V.64660647H.08198547C.15899658 .64660647 .16099549 .6366272 .16099549 .6016846V.08100891C.16099549 .04699707 .15899658 .035995485 .08198547 .035995485H.057998659V0C.05899048 0 .16499329 .0039978029 .20599365 .0039978029 .24798584 .0039978029 .30499269 .0019989014 .35499574 0V.035995485H.33099366C.2539978 .035995485 .2519989 .04598999 .2519989 .08100891V.328125H.3849945C.40299989 .328125 .45498658 .328125 .49899293 .28715516 .5339966 .25619508 .5339966 .23121643 .5339966 .16429138 .5339966 .099365238 .5339966 .058410646 .5799866 .020446778 .6230011-.014541626 .6819916-.01953125 .70999148-.01953125 .79499819-.01953125 .81700137 .061401369 .81700137 .09136963 .81700137 .098358158 .81700137 .11035156 .7999878 .11035156 .7849884 .11035156 .7839966 .101364139 .7829895 .09136963 .7779999 .033432008 .7449951 .008468628 .71398928 .008468628 .6569977 .008468628 .6489868 .06739807 .6369934 .15829468 .6259918 .23822022 .6230011 .25419618 .59399417 .28715516 .58399966 .29811097 .55599978 .32411195 .5019989 .34111024M.38198854 .35612489H.2519989V.6076813C.2519989 .6356354 .25299073 .6426239 .2789917 .6456146 .2869873 .64660647 .32099916 .64660647 .34199525 .64660647 .43798829 .64660647 .57499697 .64660647 .57499697 .5018616 .57499697 .39006043 .48799134 .35612489 .38198854 .35612489Z"/>
<path id="font_2_16" d="M.2539978 .600647C.2539978 .63461306 .2539978 .64660647 .33599855 .64660647H.3619995V.6826172C.35398866 .6826172 .24598694 .6786041 .20698548 .6786041 .16699219 .6786041 .056991579 .6826172 .050994874 .6826172V.64660647H.07699585C.15899658 .64660647 .15899658 .63461306 .15899658 .600647V.081970218C.15899658 .04798889 .15899658 .035995485 .07699585 .035995485H.050994874V0C.05899048 0 .16699219 .0039978029 .20599365 .0039978029 .24598694 .0039978029 .35598756 0 .3619995 0V.035995485H.33599855C.2539978 .035995485 .2539978 .04798889 .2539978 .081970218V.600647Z"/>
<path id="font_2_17" d="M.2749939 .660614C.2659912 .6826172 .2579956 .6826172 .23699951 .6826172H.06199646V.64660647H.085998538C.16299439 .64660647 .16499329 .63661196 .16499329 .6016388V.107940677C.16499329 .080963138 .16499329 .035995485 .06199646 .035995485V0C.102996829 .0029907227 .14299011 .0039978029 .18399048 .0039978029 .22499085 .0039978029 .2649994 .0029907227 .30599977 0V.035995485C.20298767 .035995485 .20298767 .080963138 .20298767 .107940677V.63461306L.20399475 .6356201 .46398927 .022994996C.46899415 .010986328 .47399903 0 .4889984 0 .49598695 0 .5049896 .0029907227 .5130005 .020996094L.7769928 .6456146 .7779999 .64460757V.080963138C.7779999 .04698181 .776001 .035995485 .69898989 .035995485H.6749878V0C.72299197 .0019989014 .7789917 .0039978029 .81999209 .0039978029 .86099246 .0039978029 .9169922 .0019989014 .96499636 0V.035995485H.94099429C.8639984 .035995485 .8619995 .04598999 .8619995 .080963138V.6016388C.8619995 .6356201 .8639984 .64660647 .94099429 .64660647H.96499636V.6826172H.79100039C.7709961 .6826172 .7619934 .6826172 .7539978 .6626129L.5139923 .095962528 .2749939 .660614Z"/>
<path id="font_2_28" d="M.20599365 .69433596 .055999757 .68333438V.6473236C.12298584 .6473236 .1309967 .6403198 .1309967 .59129336V.07901001C.1309967 .035995485 .12098694 .035995485 .055999757 .035995485V0C.057998659 0 .12799073 .0039978029 .16799927 .0039978029 .20599365 .0039978029 .24299622 .0029907227 .2809906 0V.035995485C.21598816 .035995485 .20599365 .035995485 .20599365 .07901001V.69433596Z"/>
<path id="font_2_13" d="M.44898988 .6898804C.44299317 .70588687 .43998719 .7128906 .42099 .7128906 .4019928 .7128906 .39898683 .70588687 .3929901 .6898804L.1619873 .104888919C.1519928 .07992554 .1349945 .035995485 .04499817 .035995485V0C.07899475 .0029907227 .11399841 .0039978029 .147995 .0039978029 .18798828 .0039978029 .2619934 0 .2679901 0V.035995485C.22399903 .035995485 .19599915 .05595398 .19599915 .08392334 .19599915 .09190369 .19699097 .09390259 .20098877 .103881839L.24899292 .22668457H.5329895L.59098818 .08091736C.59298709 .075927738 .59599307 .06893921 .59599307 .063949588 .59599307 .035995485 .5419922 .035995485 .5149994 .035995485V0C.5649872 .0019989014 .6289978 .0039978029 .6639862 .0039978029 .71099856 .0039978029 .7859955 .0009918213 .7969971 0V.035995485H.7769928C.70999148 .035995485 .7029877 .04597473 .69200137 .07392883L.44898988 .6898804M.3909912 .5878296 .5189972 .2626953H.2630005L.3909912 .5878296Z"/>
<path id="font_2_14" d="M.05999756 .6826172V.64660647H.083999637C.16099549 .64660647 .16299439 .63661196 .16299439 .6016388V.080963138C.16299439 .04698181 .16099549 .035995485 .083999637 .035995485H.05999756V0H.48399354C.625 0 .7279968 .08796692 .7279968 .1829071 .7279968 .26985169 .6399994 .34381105 .5179901 .35681153 .6159973 .37480165 .69799807 .4357605 .69799807 .5127106 .69799807 .6026459 .59298709 .6826172 .45399476 .6826172H.05999756M.25099183 .3688202V.6076355C.25099183 .63861086 .2519989 .64660647 .29899598 .64660647H.44699098C.54599 .64660647 .59799197 .57566836 .59799197 .5127106 .59799197 .4417572 .5309906 .3688202 .41600038 .3688202H.25099183M.29899598 .035995485C.2519989 .035995485 .25099183 .04399109 .25099183 .07496643V.3408203H.46398927C.56999209 .3408203 .625 .25486756 .625 .184906 .625 .110946658 .5589905 .035995485 .44898988 .035995485H.29899598Z"/>
<path id="font_3_4" d="M.35598756 .3044281C.40098573 .33143617 .43798829 .3824005 .43798829 .44236756 .43798829 .5283356 .3600006 .6113281 .24198914 .6113281H.06399536C.04899597 .6113281 .019989014 .6113281 .019989014 .57832339 .019989014 .5453186 .04899597 .5453186 .06399536 .5453186H.084991458V.06599426H.06399536C.04899597 .06599426 .019989014 .06599426 .019989014 .032989503 .019989014 0 .04899597 0 .06399536 0H.18199158C.19699097 0 .22599793 0 .22599793 .032989503 .22599793 .06599426 .19699097 .06599426 .18199158 .06599426H.16099549V.2734375H.23599243C.25698854 .2734375 .28199769 .2734375 .31199647 .247406 .33499146 .22839356 .33499146 .20536804 .33499146 .16532898 .33499146 .09727478 .33499146 .0622406 .3619995 .02722168 .3849945-.003768921 .41799928-.009765625 .43699647-.009765625 .5009918-.009765625 .5279999 .052230836 .5279999 .09727478 .5279999 .13130188 .49798585 .13130188 .48999024 .13130188 .48199464 .13130188 .45298768 .13130188 .45199586 .09927368 .45199586 .0922699 .44999696 .056228639 .43598939 .056228639 .41099549 .056228639 .41099549 .10227966 .41099549 .15031433 .41099549 .2133789 .41099549 .22038269 .40299989 .24240113 .3929901 .26641847 .3769989 .2884369 .35598756 .3044281M.22999573 .33943177H.16099549V.5453186H.22999573C.31999208 .5453186 .3619995 .48835755 .3619995 .44236756 .3619995 .39639283 .31999208 .33943177 .22999573 .33943177Z"/>
<path id="font_3_1" d="M.30299378 .5453186H.40699769C.42199708 .5453186 .45098878 .5453186 .45098878 .57832339 .45098878 .6113281 .42099 .6113281 .40699769 .6113281H.12298584C.10798645 .6113281 .07899475 .6113281 .07899475 .57832339 .07899475 .5453186 .10899353 .5453186 .12298584 .5453186H.22698975V.06599426H.12298584C.10798645 .06599426 .07899475 .06599426 .07899475 .032989503 .07899475 0 .10899353 0 .12298584 0H.40699769C.42199708 0 .45098878 0 .45098878 .032989503 .45098878 .06599426 .42099 .06599426 .40699769 .06599426H.30299378V.5453186Z"/>
<path id="font_2_12" d="M.7679901 .3359375C.7829895 .3359375 .80599978 .3359375 .80599978 .3609314 .80599978 .38493348 .7819977 .38493348 .7689972 .38493348H.10699463C.09399414 .38493348 .069992069 .38493348 .069992069 .3609314 .069992069 .3359375 .09298706 .3359375 .10798645 .3359375H.7679901M.7689972 .11602783C.7819977 .11602783 .80599978 .11602783 .80599978 .1400299 .80599978 .16503906 .7829895 .16503906 .7679901 .16503906H.10798645C.09298706 .16503906 .069992069 .16503906 .069992069 .1400299 .069992069 .11602783 .09399414 .11602783 .10699463 .11602783H.7689972Z"/>
<path id="font_2_5" d="M.5159912 .31925965C.5159912 .42918397 .5029907 .50813296 .45700074 .5780945 .42599488 .62405398 .3639984 .6640625 .28399659 .6640625 .051986696 .6640625 .051986696 .39120484 .051986696 .31925965 .051986696 .2472992 .051986696-.01953125 .28399659-.01953125 .5159912-.01953125 .5159912 .2472992 .5159912 .31925965M.28399659 .008468628C.23799134 .008468628 .1769867 .035446168 .15699768 .117385867 .14299011 .17634583 .14299011 .25830079 .14299011 .33224488 .14299011 .40519715 .14299011 .4811554 .1579895 .53611758 .1789856 .6150665 .24299622 .63604739 .28399659 .63604739 .33799745 .63604739 .3899994 .6030731 .4079895 .545105 .42399598 .4911499 .4249878 .41918946 .4249878 .33224488 .4249878 .25830079 .4249878 .18434143 .4119873 .12138367 .3919983 .030441285 .32398988 .008468628 .28399659 .008468628Z"/>
<path id="font_2_3" d="M.21899414 .056991579C.21899414 .09199524 .19099427 .114990238 .1619873 .114990238 .1269989 .114990238 .10398865 .08699036 .10398865 .057998659 .10398865 .022994996 .13198853 0 .16099549 0 .19599915 0 .21899414 .027999878 .21899414 .056991579Z"/>
<path id="font_2_8" d="M.1499939 .3274536C.1499939 .40945436 .15699768 .48303224 .19499207 .543869 .22898865 .5978699 .2829895 .63505557 .34700013 .63505557 .3769989 .63505557 .4169922 .62701418 .43699647 .5998688 .4119873 .5978699 .3909912 .5808716 .3909912 .5518799 .3909912 .5268707 .4079895 .5048828 .43798829 .5048828 .46798707 .5048828 .48599244 .5248718 .48599244 .5538788 .48599244 .6119385 .44400025 .6640625 .34498597 .6640625 .20098877 .6640625 .053985597 .5318756 .053985597 .3174591 .053985597 .05845642 .17599488-.01953125 .28599549-.01953125 .4079895-.01953125 .5139923 .07345581 .5139923 .20445252 .5139923 .33145143 .41299439 .42546083 .29599 .42546083 .21598816 .42546083 .17199707 .37245179 .1499939 .3274536M.28599549 .012466431C.23599243 .012466431 .19699097 .04145813 .17599488 .08546448 .16099549 .11546326 .15299988 .16545105 .15299988 .22544861 .15299988 .32244874 .21099854 .39746095 .29100038 .39746095 .33699037 .39746095 .36799623 .37945558 .3929901 .342453 .4169922 .30445863 .41799928 .26245118 .41799928 .20445252 .41799928 .14746094 .41799928 .10545349 .3909912 .066467288 .36698915 .031463624 .33499146 .012466431 .28599549 .012466431Z"/>
<path id="font_1_2" d="M.2899933 .36917115C.27799989 .33314515 .2689972 .30412293 .2630005 .2751007H.2619934C.2519989 .3221283 .1639862 .5813141 .1619873 .58732607 .1519928 .6113281 .1269989 .6113281 .11299133 .6113281H.056991579C.041992189 .6113281 .016998291 .6113281 .016998291 .5813141 .016998291 .5503235 .037994386 .5503235 .069992069 .5503235V.06098938C.037994386 .06098938 .016998291 .06098938 .016998291 .02999878 .016998291 0 .041992189 0 .056991579 0H.13899231C.1539917 0 .1789856 0 .1789856 .02999878 .1789856 .06098938 .1579895 .06098938 .12599182 .06098938V.5383148H.1269989C.13798523 .49227906 .20199585 .30010987 .20599365 .28710938 .21398926 .26409913 .22698975 .22608948 .23199463 .21910095 .23799134 .21109009 .25 .20410156 .2619934 .20410156 .2749939 .20410156 .2889862 .21209717 .29699708 .22608948 .2999878 .23210144 .3849945 .48527528 .39698792 .5383148H.397995V.06098938C.3659973 .06098938 .34498597 .06098938 .34498597 .02999878 .34498597 0 .36999513 0 .3849945 0H.46699525C.48199464 0 .5069885 0 .5069885 .02999878 .5069885 .06098938 .48599244 .06098938 .45399476 .06098938V.5503235C.48599244 .5503235 .5069885 .5503235 .5069885 .5813141 .5069885 .6113281 .48199464 .6113281 .46699525 .6113281H.41099549C.36999513 .6113281 .3659973 .59732058 .35699464 .5713196L.2899933 .36917115Z"/>
<path id="font_1_4" d="M.3659973 .03199768C.3880005 .0009918213 .43598939 0 .47399903 0 .5019989 0 .5239868 0 .5239868 .0309906 .5239868 .06098938 .49899293 .06098938 .48399354 .06098938 .44198609 .06098938 .43199159 .06600952 .42399598 .069000247V.28529359C.42399598 .35638429 .36999513 .4404297 .22599793 .4404297 .18299866 .4404297 .08099365 .4404297 .08099365 .36740113 .08099365 .33737184 .101989749 .3213501 .12599182 .3213501 .14099121 .3213501 .16899109 .33035279 .16999817 .36740113 .16999817 .375412 .17098999 .37641908 .19099427 .37841798 .20498657 .37942506 .21798706 .37942506 .22698975 .37942506 .30299378 .37942506 .35499574 .3483734 .35499574 .2772827 .17799378 .274292 .054992677 .22428894 .054992677 .12820435 .054992677 .059143068 .117996219-.005859375 .21998596-.005859375 .25698854-.006011963 .31900025 .0009918213 .3659973 .03199768M.35499574 .21829224V.13412476C.35499574 .111083988 .35499574 .090042117 .31599427 .072006229 .27999879 .054992677 .23498535 .054992677 .22698975 .054992677 .16499329 .054992677 .12399292 .08905029 .12399292 .1281128 .12399292 .17721558 .20999146 .21427918 .35499574 .21829224Z"/>
<path id="font_2_32" d="M.19898987 .22819519C.19898987 .31228639 .23799134 .4133911 .33299256 .4133911 .32398988 .40638734 .31599427 .39337159 .31599427 .3773651 .31599427 .34432984 .34199525 .3313141 .36099244 .3313141 .3849945 .3313141 .40699769 .34732057 .40699769 .3773651 .40699769 .4113922 .375 .44140626 .32798768 .44140626 .27799989 .44140626 .22299195 .4104004 .19299317 .33432008H.19198609V.44140626L.04899597 .43040467V.39437867C.115997318 .39437867 .12399292 .38737489 .12399292 .33831788V.07904053C.12399292 .035995485 .11399841 .035995485 .04899597 .035995485V0C.053985597 0 .12199402 .0039978029 .16299439 .0039978029 .20599365 .0039978029 .25 .0019989014 .29299928 0V.035995485H.272995C.19898987 .035995485 .19898987 .04699707 .19898987 .08103943V.22819519Z"/>
<path id="font_2_37" d="M.69999697 .33374024C.7200012 .383667 .7529907 .3936615 .7839966 .39465333V.43066407C.7569885 .42765809 .7409973 .426651 .71199038 .426651 .6819916 .426651 .6439972 .42765809 .6139984 .43066407V.39465333C.6489868 .3936615 .66600039 .37467958 .66600039 .35072328 .66600039 .34272767 .66600039 .34072877 .6599884 .3267517L.5629883 .078125 .45498658 .35072328C.45298768 .3557129 .44999696 .3637085 .44999696 .36968995 .44999696 .3916626 .47599793 .39465333 .5039978 .39465333V.43066407C.46798707 .42765809 .43199159 .426651 .3959961 .426651 .36698915 .426651 .33699037 .4286499 .30799867 .43066407V.39465333C.33099366 .39465333 .35198976 .39465333 .36499024 .38667298 .3789978 .37667848 .3880005 .34373475 .3880005 .34272767 .3880005 .34072877 .38598634 .3347473 .38398744 .3307495L.2899933 .09310913 .18899536 .35072328C.18299866 .36470033 .18299866 .36569215 .18299866 .36968995 .18299866 .39465333 .21899414 .39465333 .23699951 .39465333V.43066407C.23498535 .43066407 .1639862 .426651 .12399292 .426651 .09298706 .426651 .06098938 .42765809 .02999878 .43066407V.39465333C.068984989 .39465333 .09098816 .39465333 .101989749 .36569215L.24099732 .01322937C.24699402-.0017700195 .25-.009765625 .2679901-.009765625 .28599549-.009765625 .2889862-.0017700195 .2939911 .011230469L.40699769 .2967987 .5179901 .014221191C.5239868-.00077819827 .5279999-.009765625 .54599-.009765625 .56399539-.009765625 .5669861-.0027770997 .57299807 .01322937L.69999697 .33374024Z"/>
<path id="font_2_25" d="M.5149994 .3032837C.5149994 .3903656 .47200013 .44140626 .36499024 .44140626 .27598573 .44140626 .22698975 .3883667 .20498657 .35032655H.20399475V.69433596L.053985597 .68333438V.6473236C.12098694 .6473236 .1289978 .6403351 .1289978 .59135439V.07904053C.1289978 .035995485 .11898804 .035995485 .053985597 .035995485V0C.055999757 0 .12599182 .0039978029 .16799927 .0039978029 .20498657 .0039978029 .27398683 .0009918213 .2829895 0V.035995485C.21798706 .035995485 .20799256 .035995485 .20799256 .07904053V.25923158C.20799256 .36434938 .29100038 .4133911 .35699464 .4133911 .4269867 .4133911 .43598939 .3583374 .43598939 .3072815V.07904053C.43598939 .035995485 .42599488 .035995485 .36099244 .035995485V0C.36299134 0 .43299867 .0039978029 .47499085 .0039978029 .5119934 .0039978029 .58099368 .0009918213 .58999636 0V.035995485C.5249939 .035995485 .5149994 .035995485 .5149994 .07904053V.3032837Z"/>
<path id="font_2_27" d="M.32299806 .27111817C.44599916 .36618043 .47898866 .39318849 .5479889 .39518739V.43121339C.5269928 .42921449 .5009918 .42721559 .47999574 .42721559 .43998719 .42721559 .3999939 .4282074 .3600006 .43121339V.39518739C.37298585 .39318849 .37799073 .38519288 .37799073 .377182 .37799073 .36117555 .35899354 .3421631 .34700013 .3331604L.19898987 .21910095V.69433596L.04899597 .68333438V.6473236C.115997318 .6473236 .12399292 .6403198 .12399292 .59129336V.07901001C.12399292 .035995485 .11399841 .035995485 .04899597 .035995485V0C.085998538 .0029907227 .12298584 .0039978029 .1599884 .0039978029 .19699097 .0039978029 .23399353 .0029907227 .2709961 0V.035995485C.20599365 .035995485 .19599915 .035995485 .19599915 .07901001V.17407227L.2679901 .23010254 .3769989 .09503174C.3880005 .08201599 .3999939 .0670166 .3999939 .054000856 .3999939 .037994386 .38198854 .035995485 .37199403 .035995485V0C.3849945 .0009918213 .45599366 .0039978029 .4850006 .0039978029 .5139923 .0039978029 .54299929 .0019989014 .57199099 0V.035995485C.5349884 .035995485 .5130005 .039001466 .48399354 .074020389L.32299806 .27111817Z"/>
<path id="font_2_1" d="M.5219879 .6940918C.5139923 .6931 .48399354 .6880951 .48098756 .6880951 .47898866 .6880951 .47698976 .6880951 .47200013 .6911011 .43598939 .70410159 .3929901 .70410159 .37399293 .70410159 .2519989 .70410159 .12399292 .65005496 .12399292 .5408478V.43066407H.037994386V.39465333H.12399292V.078948978C.12399292 .035995485 .11399841 .035995485 .04899597 .035995485V0C.050994874 0 .12098694 .0039978029 .16099549 .0039978029 .19898987 .0039978029 .23599243 .0029907227 .27398683 0V.035995485C.20899964 .035995485 .19898987 .035995485 .19898987 .078948978V.39465333H.44699098V.078948978C.44699098 .035995485 .43699647 .035995485 .37199403 .035995485V0C.37399293 0 .44400025 .0039978029 .48399354 .0039978029 .5219879 .0039978029 .5589905 .0029907227 .5970001 0V.035995485C.5319977 .035995485 .5219879 .035995485 .5219879 .078948978V.6940918M.19499207 .43066407V.53985598C.19499207 .628006 .2769928 .6760864 .37298585 .6760864 .397995 .6760864 .41799928 .6750946 .44299317 .66908267 .43099977 .6610718 .42399598 .64604189 .42399598 .63101199 .42399598 .625 .42599488 .6029663 .44699098 .5909424V.43066407H.19499207Z"/>
<path id="font_3_2" d="M.2979889 .39622499C.2979889 .3952179 .2709961 .3141632 .2649994 .2831421H.2639923C.2579956 .3151703 .25299073 .33117677 .24099732 .36819459L.1749878 .57032778C.1659851 .59832766 .1579895 .6113281 .117996219 .6113281H.05999756C.04499817 .6113281 .015991211 .6113281 .015991211 .57832339 .015991211 .5453186 .042999269 .5453186 .068984989 .5453186V.06599426C.042999269 .06599426 .015991211 .06599426 .015991211 .032989503 .015991211 0 .04598999 0 .05999756 0H.13999939C.15499878 0 .18399048 0 .18399048 .032989503 .18399048 .06599426 .15699768 .06599426 .1309967 .06599426V.53030398H.13198853C.13699341 .5052948 .13999939 .4942932 .1499939 .46426393L.22099304 .24311829C.22399903 .23510742 .23298645 .2040863 .2649994 .2040863 .27398683 .2040863 .29299928 .20909119 .30299378 .22810364 .30899049 .24111939 .39898683 .51831057 .39898683 .52830508V.06599426C.37298585 .06599426 .34599305 .06599426 .34599305 .032989503 .34599305 0 .37599183 0 .3899994 0H.46998597C.4850006 0 .5139923 0 .5139923 .032989503 .5139923 .06599426 .4869995 .06599426 .46099855 .06599426V.5453186C.4869995 .5453186 .5139923 .5453186 .5139923 .57832339 .5139923 .6113281 .48399354 .6113281 .46998597 .6113281H.4119873C.3919983 .6113281 .36698915 .6113281 .35499574 .5733185L.2979889 .39622499Z"/>
<path id="font_3_6" d="M.43099977 .28224183C.43099977 .36543275 .3659973 .43945313 .22898865 .43945313 .18199158 .43945313 .07899475 .43945313 .07899475 .36242677 .07899475 .33535768 .09799194 .31330873 .12799073 .31330873 .14698792 .31330873 .17399597 .32533265 .17599488 .36141969 .17599488 .36943055 .1769867 .37043763 .18998719 .37243653 .20098877 .3734436 .21798706 .3734436 .22999573 .3734436 .31199647 .3734436 .35499574 .33636476 .35499574 .28125 .24798584 .28125 .052993776 .25624085 .052993776 .13310242 .052993776 .05899048 .12199402-.005004883 .22299195-.005004883 .30299378-.005004883 .35299684 .024993897 .3659973 .033996583 .3869934 .0029907227 .42900086 0 .47698976 0 .5039978 0 .5299988 0 .5299988 .032989503 .5299988 .06599426 .5019989 .06599426 .48799134 .06599426 .44999696 .06599426 .44099427 .069000247 .43099977 .07299805V.28224183M.35499574 .14312744C.35499574 .12208557 .35499574 .0990448 .31599427 .08001709 .2809906 .06199646 .24198914 .06098938 .22898865 .06098938 .16999817 .06098938 .1289978 .09603882 .1289978 .13310242 .1289978 .18618775 .23899842 .21624756 .35499574 .21723938V.14312744Z"/>
<path id="font_2_7" d="M.5289917 .1640625V.20005799H.41799928V.64582827C.41799928 .66682437 .41799928 .6738281 .3959961 .6738281 .38398744 .6738281 .37998963 .6738281 .36999513 .65982058L.038986207 .20005799V.1640625H.33299256V.08201599C.33299256 .04800415 .33299256 .035995485 .2519989 .035995485H.22499085V0C.2749939 .0019989014 .33898927 .0039978029 .375 .0039978029 .4119873 .0039978029 .47599793 .0019989014 .526001 0V.035995485H.49899293C.41799928 .035995485 .41799928 .04800415 .41799928 .08201599V.1640625H.5289917M.33999635 .5658722V.20005799H.07598877L.33999635 .5658722Z"/>
<path id="font_2_6" d="M.272995 .33428956C.35099793 .33428956 .40699769 .2803192 .40699769 .1733551 .40699769 .04940796 .33499146 .012466431 .2769928 .012466431 .23699951 .012466431 .14898682 .0234375 .10699463 .082351688 .1539917 .084350589 .16499329 .11735535 .16499329 .13835144 .16499329 .17034912 .14099121 .19335938 .10998535 .19335938 .08198547 .19335938 .053985597 .17634583 .053985597 .13534546 .053985597 .041412355 .1579895-.01953125 .2789917-.01953125 .41799928-.01953125 .5139923 .07336426 .5139923 .1733551 .5139923 .2513275 .44999696 .32929994 .33999635 .35229493 .44499208 .39024354 .48298646 .4650879 .48298646 .5260773 .48298646 .60505679 .3919983 .6640625 .2809906 .6640625 .16999817 .6640625 .084991458 .61006167 .084991458 .5300751 .084991458 .49606324 .10699463 .47706605 .13699341 .47706605 .16799927 .47706605 .18798828 .5000763 .18798828 .5280762 .18798828 .5570679 .16799927 .57806399 .13699341 .5800781 .17199707 .62405398 .24099732 .63505557 .27799989 .63505557 .32299806 .63505557 .38598634 .6130676 .38598634 .5260773 .38598634 .48406983 .37199403 .43814088 .34599305 .4072113 .31298829 .36927796 .2849884 .3672943 .23498535 .36428834 .20999146 .3623047 .20799256 .3623047 .20298767 .3612976 .20098877 .3612976 .19299317 .3592987 .19299317 .34829713 .19299317 .33428956 .20199585 .33428956 .21899414 .33428956H.272995Z"/>
<path id="font_2_9" d="M.5349884 .6045227C.54499819 .6165161 .54499819 .6185303 .54499819 .64453127H.2829895C.24299622 .64453127 .23199463 .6455078 .19599915 .6484375 .14399719 .65234377 .14199829 .6592407 .13899231 .676239H.10499573L.069992069 .46250917H.10398865C.10598755 .47750855 .115997318 .54351809 .13198853 .5535126 .13999939 .55952456 .22099304 .55952456 .23599243 .55952456H.45399476C.42199708 .5175171 .37098695 .45550538 .34999085 .4275055 .21899414 .25549317 .20698548 .096466068 .20698548 .037460329 .20698548 .02645874 .20698548-.01953125 .2539978-.01953125 .3019867-.01953125 .3019867 .025466919 .3019867 .038467409V.07847595C.3019867 .27249146 .34199525 .36149598 .3849945 .41551209L.5349884 .6045227Z"/>
<path id="font_2_10" d="M.41799928 .29803468C.41799928 .05064392 .29499818 .012466431 .23498535 .012466431 .21299744 .012466431 .1599884 .014465332 .1329956 .045639039 .17399597 .04963684 .1769867 .08363342 .1769867 .09263611 .1769867 .11764526 .1599884 .13964844 .12998963 .13964844 .099990848 .13964844 .08198547 .119644168 .08198547 .09063721 .08198547 .022521973 .13899231-.01953125 .23599243-.01953125 .3789978-.01953125 .5139923 .11564636 .5139923 .32904054 .5139923 .5770569 .4039917 .6640625 .2869873 .6640625 .2539978 .6640625 .18499756 .6590576 .12799073 .60305789 .09399414 .5700531 .053985597 .53105166 .053985597 .4410553 .053985597 .31404115 .15499878 .22003174 .27198792 .22003174 .35198976 .22003174 .394989 .27304078 .41799928 .31803895V.29803468M.2769928 .24804688C.23799134 .24804688 .20098877 .26104737 .17298889 .30703736 .1499939 .34403993 .1499939 .38604737 .1499939 .4410553 .1499939 .49905396 .1499939 .53904727 .1789856 .5790558 .20298767 .61405947 .23599243 .63505557 .28799439 .63505557 .33898927 .63505557 .36898805 .60305789 .3849945 .5770569 .4119873 .53504946 .4149933 .4650421 .4149933 .4300537 .4149933 .30004884 .33999635 .24804688 .2769928 .24804688Z"/>
</defs>
<path transform="matrix(1,0,0,-1,4.334,144.648)" d="M0 2.99V137.33C0 138.98 1.34 140.32 2.99 140.32H212.45C214.1 140.32 215.44 138.98 215.44 137.33V2.99C215.44 1.34 214.1 0 212.45 0H2.99C1.34 0 0 1.34 0 2.99ZM215.44 140.32" fill="#212121"/>
<path transform="matrix(1,0,0,-1,4.334,144.648)" stroke-width=".69739" stroke-linecap="butt" stroke-miterlimit="10" stroke-linejoin="miter" fill="none" stroke="#a6a6a6" d="M0 2.99V137.33C0 138.98 1.34 140.32 2.99 140.32H212.45C214.1 140.32 215.44 138.98 215.44 137.33V2.99C215.44 1.34 214.1 0 212.45 0H2.99C1.34 0 0 1.34 0 2.99ZM215.44 140.32"/>
<use data-text="R" xlink:href="#font_1_3" transform="matrix(9.9626,0,0,-9.9626,13.523001,16.731995)"/>
<use data-text="I" xlink:href="#font_1_1" transform="matrix(9.9626,0,0,-9.9626,18.753365,16.731995)"/>
<use data-text="C" xlink:href="#font_2_15" transform="matrix(6.9738,0,0,-6.9738,13.523001,26.202996)" fill="#cccccc"/>
<use data-text="o" xlink:href="#font_2_31" transform="matrix(6.9738,0,0,-6.9738,19.213624,26.202996)" fill="#cccccc"/>
<use data-text="u" xlink:href="#font_2_35" transform="matrix(6.9738,0,0,-6.9738,23.18869,26.202996)" fill="#cccccc"/>
<use data-text="n" xlink:href="#font_2_30" transform="matrix(6.9738,0,0,-6.9738,27.589158,26.202996)" fill="#cccccc"/>
<use data-text="t" xlink:href="#font_2_34" transform="matrix(6.9738,0,0,-6.9738,31.773438,26.202996)" fill="#cccccc"/>
<use data-text="-" xlink:href="#font_2_2" transform="matrix(6.9738,0,0,-6.9738,34.88375,26.202996)" fill="#cccccc"/>
<use data-text="b" xlink:href="#font_2_20" transform="matrix(6.9738,0,0,-6.9738,37.568666,26.202996)" fill="#cccccc"/>
<use data-text="a" xlink:href="#font_2_19" transform="matrix(6.9738,0,0,-6.9738,41.96913,26.202996)" fill="#cccccc"/>
<use data-text="s" xlink:href="#font_2_33" transform="matrix(6.9738,0,0,-6.9738,45.9442,26.202996)" fill="#cccccc"/>
<use data-text="e" xlink:href="#font_2_23" transform="matrix(6.9738,0,0,-6.9738,49.10333,26.202996)" fill="#cccccc"/>
<use data-text="d" xlink:href="#font_2_22" transform="matrix(6.9738,0,0,-6.9738,52.64602,26.202996)" fill="#cccccc"/>
<use data-text=":" xlink:href="#font_2_11" transform="matrix(6.9738,0,0,-6.9738,57.046487,26.202996)" fill="#cccccc"/>
<use data-text="s" xlink:href="#font_2_33" transform="matrix(6.9738,0,0,-6.9738,62.841714,26.202996)" fill="#cccccc"/>
<use data-text="a" xlink:href="#font_2_19" transform="matrix(6.9738,0,0,-6.9738,66.00085,26.202996)" fill="#cccccc"/>
<use data-text="m" xlink:href="#font_2_29" transform="matrix(6.9738,0,0,-6.9738,69.975917,26.202996)" fill="#cccccc"/>
<use data-text="e" xlink:href="#font_2_23" transform="matrix(6.9738,0,0,-6.9738,76.524318,26.202996)" fill="#cccccc"/>
<use data-text="S" xlink:href="#font_3_5" transform="matrix(6.9738,0,0,-6.9738,82.732,26.202996)" fill="#cccccc"/>
<use data-text="O" xlink:href="#font_3_3" transform="matrix(6.9738,0,0,-6.9738,86.43509,26.202996)" fill="#cccccc"/>
<use data-text="/" xlink:href="#font_2_4" transform="matrix(6.9738,0,0,-6.9738,90.141,26.202996)" fill="#cccccc"/>
<use data-text="O" xlink:href="#font_3_3" transform="matrix(6.9738,0,0,-6.9738,94.113,26.202996)" fill="#cccccc"/>
<use data-text="S" xlink:href="#font_3_5" transform="matrix(6.9738,0,0,-6.9738,97.816089,26.202996)" fill="#cccccc"/>
<use data-text="c" xlink:href="#font_2_21" transform="matrix(6.9738,0,0,-6.9738,104.207,26.202996)" fill="#cccccc"/>
<use data-text="o" xlink:href="#font_2_31" transform="matrix(6.9738,0,0,-6.9738,107.749698,26.202996)" fill="#cccccc"/>
<use data-text="u" xlink:href="#font_2_35" transform="matrix(6.9738,0,0,-6.9738,111.72476,26.202996)" fill="#cccccc"/>
<use data-text="n" xlink:href="#font_2_30" transform="matrix(6.9738,0,0,-6.9738,116.12523,26.202996)" fill="#cccccc"/>
<use data-text="t" xlink:href="#font_2_34" transform="matrix(6.9738,0,0,-6.9738,120.30951,26.202996)" fill="#cccccc"/>
<use data-text="s" xlink:href="#font_2_33" transform="matrix(6.9738,0,0,-6.9738,123.41982,26.202996)" fill="#cccccc"/>
<use data-text="g" xlink:href="#font_2_24" transform="matrix(6.9738,0,0,-6.9738,129.26387,26.202996)" fill="#cccccc"/>
<use data-text="i" xlink:href="#font_2_26" transform="matrix(6.9738,0,0,-6.9738,133.23894,26.202996)" fill="#cccccc"/>
<use data-text="v" xlink:href="#font_2_36" transform="matrix(6.9738,0,0,-6.9738,135.49147,26.202996)" fill="#cccccc"/>
<use data-text="e" xlink:href="#font_2_23" transform="matrix(6.9738,0,0,-6.9738,139.45957,26.202996)" fill="#cccccc"/>
<use data-text="s" xlink:href="#font_2_33" transform="matrix(6.9738,0,0,-6.9738,145.68717,26.202996)" fill="#cccccc"/>
<use data-text="a" xlink:href="#font_2_19" transform="matrix(6.9738,0,0,-6.9738,148.8463,26.202996)" fill="#cccccc"/>
<use data-text="m" xlink:href="#font_2_29" transform="matrix(6.9738,0,0,-6.9738,152.82137,26.202996)" fill="#cccccc"/>
<use data-text="e" xlink:href="#font_2_23" transform="matrix(6.9738,0,0,-6.9738,159.36977,26.202996)" fill="#cccccc"/>
<use data-text="R" xlink:href="#font_2_18" transform="matrix(6.9738,0,0,-6.9738,165.59737,26.202996)" fill="#cccccc"/>
<use data-text="I" xlink:href="#font_2_16" transform="matrix(6.9738,0,0,-6.9738,171.37865,26.202996)" fill="#cccccc"/>
<use data-text="M" xlink:href="#font_2_17" transform="matrix(6.9738,0,0,-6.9738,41.717,41.631998)"/>
<use data-text="o" xlink:href="#font_2_31" transform="matrix(6.9738,0,0,-6.9738,48.886068,41.631998)"/>
<use data-text="d" xlink:href="#font_2_22" transform="matrix(6.9738,0,0,-6.9738,53.07732,41.631998)"/>
<use data-text="e" xlink:href="#font_2_23" transform="matrix(6.9738,0,0,-6.9738,57.477788,41.631998)"/>
<use data-text="l" xlink:href="#font_2_28" transform="matrix(6.9738,0,0,-6.9738,61.020479,41.631998)"/>
<use data-text="A" xlink:href="#font_2_13" transform="matrix(6.9738,0,0,-6.9738,65.957927,41.631998)"/>
<path transform="matrix(1,0,0,-1,4.334,144.648)" stroke-width=".64757" stroke-linecap="butt" stroke-miterlimit="10" stroke-linejoin="miter" fill="none" stroke="#b2b3b2" d="M11.34 17.01V99.21H93.54V17.01ZM93.54 99.21"/>
<path transform="matrix(1,0,0,-1,4.334,144.648)" stroke-width=".69739" stroke-linecap="butt" stroke-dasharray=".69739,.99628" stroke-miterlimit="10" stroke-linejoin="miter" fill="none" stroke="#a6a6a6" d="M81.64 58.11C81.64 74.24 68.57 87.31 52.44 87.31 36.32 87.31 23.24 74.24 23.24 58.11 23.24 41.99 36.32 28.91 52.44 28.91 68.57 28.91 81.64 41.99 81.64 58.11ZM52.44 58.11"/>
<path transform="matrix(1,0,0,-1,4.334,144.648)" d="M52.44 61.6 51.08 59.99 49.13 59.19 50.23 57.39 50.39 55.29 52.44 55.79 54.49 55.29 54.65 57.39 55.76 59.19 53.81 59.99Z" fill="#48a2e0"/>
<path transform="matrix(1,0,0,-1,4.334,144.648)" stroke-width=".3985" stroke-linecap="butt" stroke-miterlimit="10" stroke-linejoin="miter" fill="none" stroke="#48a2e0" d="M52.44 61.6 51.08 59.99 49.13 59.19 50.23 57.39 50.39 55.29 52.44 55.79 54.49 55.29 54.65 57.39 55.76 59.19 53.81 59.99Z"/>
<path transform="matrix(1,0,0,-1,4.334,144.648)" d="M34.44 68.03C34.44 69.05 33.62 69.88 32.6 69.88 31.58 69.88 30.76 69.05 30.76 68.03 30.76 67.01 31.58 66.19 32.6 66.19 33.62 66.19 34.44 67.01 34.44 68.03ZM32.6 68.03" fill="#57d157"/>
<path transform="matrix(1,0,0,-1,4.334,144.648)" stroke-width=".3985" stroke-linecap="butt" stroke-miterlimit="10" stroke-linejoin="miter" fill="none" stroke="#57d157" d="M34.44 68.03C34.44 69.05 33.62 69.88 32.6 69.88 31.58 69.88 30.76 69.05 30.76 68.03 30.76 67.01 31.58 66.19 32.6 66.19 33.62 66.19 34.44 67.01 34.44 68.03ZM32.6 68.03"/>
<path transform="matrix(1,0,0,-1,4.334,144.648)" d="M75.54 63.78C75.54 64.8 74.72 65.62 73.7 65.62 72.68 65.62 71.86 64.8 71.86 63.78 71.86 62.76 72.68 61.94 73.7 61.94 74.72 61.94 75.54 62.76 75.54 63.78ZM73.7 63.78" fill="#57d157"/>
<path transform="matrix(1,0,0,-1,4.334,144.648)" stroke-width=".3985" stroke-linecap="butt" stroke-miterlimit="10" stroke-linejoin="miter" fill="none" stroke="#57d157" d="M75.54 63.78C75.54 64.8 74.72 65.62 73.7 65.62 72.68 65.62 71.86 64.8 71.86 63.78 71.86 62.76 72.68 61.94 73.7 61.94 74.72 61.94 75.54 62.76 75.54 63.78ZM73.7 63.78"/>
<path transform="matrix(1,0,0,-1,4.334,144.648)" d="M58.54 35.43C58.54 36.45 57.71 37.28 56.69 37.28 55.68 37.28 54.85 36.45 54.85 35.43 54.85 34.42 55.68 33.59 56.69 33.59 57.71 33.59 58.54 34.42 58.54 35.43ZM56.69 35.43" fill="#57d157"/>
<path transform="matrix(1,0,0,-1,4.334,144.648)" stroke-width=".3985" stroke-linecap="butt" stroke-miterlimit="10" stroke-linejoin="miter" fill="none" stroke="#57d157" d="M58.54 35.43C58.54 36.45 57.71 37.28 56.69 37.28 55.68 37.28 54.85 36.45 54.85 35.43 54.85 34.42 55.68 33.59 56.69 33.59 57.71 33.59 58.54 34.42 58.54 35.43ZM56.69 35.43"/>
<path transform="matrix(1,0,0,-1,4.334,144.648)" d="M59.95 61.51C59.95 62.53 59.13 63.36 58.11 63.36 57.09 63.36 56.27 62.53 56.27 61.51 56.27 60.49 57.09 59.67 58.11 59.67 59.13 59.67 59.95 60.49 59.95 61.51ZM58.11 61.51" fill="#de4a4b"/>
<path transform="matrix(1,0,0,-1,4.334,144.648)" stroke-width=".3985" stroke-linecap="butt" stroke-miterlimit="10" stroke-linejoin="miter" fill="none" stroke="#de4a4b" d="M59.95 61.51C59.95 62.53 59.13 63.36 58.11 63.36 57.09 63.36 56.27 62.53 56.27 61.51 56.27 60.49 57.09 59.67 58.11 59.67 59.13 59.67 59.95 60.49 59.95 61.51ZM58.11 61.51"/>
<path transform="matrix(1,0,0,-1,4.334,144.648)" d="M49.18 53.01C49.18 54.03 48.36 54.85 47.34 54.85 46.32 54.85 45.5 54.03 45.5 53.01 45.5 51.99 46.32 51.17 47.34 51.17 48.36 51.17 49.18 51.99 49.18 53.01ZM47.34 53.01" fill="#de4a4b"/>
<path transform="matrix(1,0,0,-1,4.334,144.648)" stroke-width=".3985" stroke-linecap="butt" stroke-miterlimit="10" stroke-linejoin="miter" fill="none" stroke="#de4a4b" d="M49.18 53.01C49.18 54.03 48.36 54.85 47.34 54.85 46.32 54.85 45.5 54.03 45.5 53.01 45.5 51.99 46.32 51.17 47.34 51.17 48.36 51.17 49.18 51.99 49.18 53.01ZM47.34 53.01"/>
<path transform="matrix(1,0,0,-1,4.334,144.648)" d="M37.84 77.95C37.84 78.97 37.02 79.8 36 79.8 34.98 79.8 34.16 78.97 34.16 77.95 34.16 76.94 34.98 76.11 36 76.11 37.02 76.11 37.84 76.94 37.84 77.95ZM36 77.95" fill="#966abe"/>
<path transform="matrix(1,0,0,-1,4.334,144.648)" stroke-width=".3985" stroke-linecap="butt" stroke-miterlimit="10" stroke-linejoin="miter" fill="none" stroke="#966abe" d="M37.84 77.95C37.84 78.97 37.02 79.8 36 79.8 34.98 79.8 34.16 78.97 34.16 77.95 34.16 76.94 34.98 76.11 36 76.11 37.02 76.11 37.84 76.94 37.84 77.95ZM36 77.95"/>
<path transform="matrix(1,0,0,-1,4.334,144.648)" d="M50.03 65.2C50.03 66.22 49.21 67.04 48.19 67.04 47.17 67.04 46.35 66.22 46.35 65.2 46.35 64.18 47.17 63.35 48.19 63.35 49.21 63.35 50.03 64.18 50.03 65.2ZM48.19 65.2" fill="#966abe"/>
<path transform="matrix(1,0,0,-1,4.334,144.648)" stroke-width=".3985" stroke-linecap="butt" stroke-miterlimit="10" stroke-linejoin="miter" fill="none" stroke="#966abe" d="M50.03 65.2C50.03 66.22 49.21 67.04 48.19 67.04 47.17 67.04 46.35 66.22 46.35 65.2 46.35 64.18 47.17 63.35 48.19 63.35 49.21 63.35 50.03 64.18 50.03 65.2ZM48.19 65.2"/>
<path transform="matrix(1,0,0,-1,4.334,144.648)" d="M71.86 46.77C71.86 47.79 71.03 48.62 70.02 48.62 69 48.62 68.17 47.79 68.17 46.77 68.17 45.75 69 44.93 70.02 44.93 71.03 44.93 71.86 45.75 71.86 46.77ZM70.02 46.77" fill="#ff8d29"/>
<path transform="matrix(1,0,0,-1,4.334,144.648)" stroke-width=".3985" stroke-linecap="butt" stroke-miterlimit="10" stroke-linejoin="miter" fill="none" stroke="#ff8d29" d="M71.86 46.77C71.86 47.79 71.03 48.62 70.02 48.62 69 48.62 68.17 47.79 68.17 46.77 68.17 45.75 69 44.93 70.02 44.93 71.03 44.93 71.86 45.75 71.86 46.77ZM70.02 46.77"/>
<path transform="matrix(1,0,0,-1,4.334,144.648)" d="M87.73 64.35C87.73 65.37 86.91 66.19 85.89 66.19 84.87 66.19 84.05 65.37 84.05 64.35 84.05 63.33 84.87 62.5 85.89 62.5 86.91 62.5 87.73 63.33 87.73 64.35ZM85.89 64.35" fill="#57d157"/>
<path transform="matrix(1,0,0,-1,4.334,144.648)" stroke-width=".3985" stroke-linecap="butt" stroke-miterlimit="10" stroke-linejoin="miter" fill="none" stroke="#57d157" d="M87.73 64.35C87.73 65.37 86.91 66.19 85.89 66.19 84.87 66.19 84.05 65.37 84.05 64.35 84.05 63.33 84.87 62.5 85.89 62.5 86.91 62.5 87.73 63.33 87.73 64.35ZM85.89 64.35"/>
<path transform="matrix(1,0,0,-1,4.334,144.648)" d="M20.84 49.04C20.84 50.06 20.01 50.88 18.99 50.88 17.97 50.88 17.15 50.06 17.15 49.04 17.15 48.02 17.97 47.2 18.99 47.2 20.01 47.2 20.84 48.02 20.84 49.04ZM18.99 49.04" fill="#de4a4b"/>
<path transform="matrix(1,0,0,-1,4.334,144.648)" stroke-width=".3985" stroke-linecap="butt" stroke-miterlimit="10" stroke-linejoin="miter" fill="none" stroke="#de4a4b" d="M20.84 49.04C20.84 50.06 20.01 50.88 18.99 50.88 17.97 50.88 17.15 50.06 17.15 49.04 17.15 48.02 17.97 47.2 18.99 47.2 20.01 47.2 20.84 48.02 20.84 49.04ZM18.99 49.04"/>
<path transform="matrix(1,0,0,-1,4.334,144.648)" d="M82.06 85.04C82.06 86.06 81.24 86.88 80.22 86.88 79.2 86.88 78.38 86.06 78.38 85.04 78.38 84.02 79.2 83.2 80.22 83.2 81.24 83.2 82.06 84.02 82.06 85.04ZM80.22 85.04" fill="#ff8d29"/>
<path transform="matrix(1,0,0,-1,4.334,144.648)" stroke-width=".3985" stroke-linecap="butt" stroke-miterlimit="10" stroke-linejoin="miter" fill="none" stroke="#ff8d29" d="M82.06 85.04C82.06 86.06 81.24 86.88 80.22 86.88 79.2 86.88 78.38 86.06 78.38 85.04 78.38 84.02 79.2 83.2 80.22 83.2 81.24 83.2 82.06 84.02 82.06 85.04ZM80.22 85.04"/>
<use data-text="M" xlink:href="#font_2_17" transform="matrix(6.9738,0,0,-6.9738,141.085,41.631998)"/>
<use data-text="o" xlink:href="#font_2_31" transform="matrix(6.9738,0,0,-6.9738,148.25408,41.631998)"/>
<use data-text="d" xlink:href="#font_2_22" transform="matrix(6.9738,0,0,-6.9738,152.44533,41.631998)"/>
<use data-text="e" xlink:href="#font_2_23" transform="matrix(6.9738,0,0,-6.9738,156.8458,41.631998)"/>
<use data-text="l" xlink:href="#font_2_28" transform="matrix(6.9738,0,0,-6.9738,160.38849,41.631998)"/>
<use data-text="B" xlink:href="#font_2_14" transform="matrix(6.9738,0,0,-6.9738,165.32593,41.631998)"/>
<path transform="matrix(1,0,0,-1,4.334,144.648)" stroke-width=".64757" stroke-linecap="butt" stroke-miterlimit="10" stroke-linejoin="miter" fill="none" stroke="#b2b3b2" d="M110.55 17.01V99.21H192.76V17.01ZM192.76 99.21"/>
<path transform="matrix(1,0,0,-1,4.334,144.648)" stroke-width=".69739" stroke-linecap="butt" stroke-dasharray=".69739,.99628" stroke-miterlimit="10" stroke-linejoin="miter" fill="none" stroke="#a6a6a6" d="M180.85 58.11C180.85 74.24 167.78 87.31 151.66 87.31 135.53 87.31 122.46 74.24 122.46 58.11 122.46 41.99 135.53 28.91 151.66 28.91 167.78 28.91 180.85 41.99 180.85 58.11ZM151.66 58.11"/>
<path transform="matrix(1,0,0,-1,4.334,144.648)" d="M151.66 61.6 150.29 59.99 148.34 59.19 149.44 57.39 149.61 55.29 151.66 55.79 153.71 55.29 153.87 57.39 154.97 59.19 153.02 59.99Z" fill="#48a2e0"/>
<path transform="matrix(1,0,0,-1,4.334,144.648)" stroke-width=".3985" stroke-linecap="butt" stroke-miterlimit="10" stroke-linejoin="miter" fill="none" stroke="#48a2e0" d="M151.66 61.6 150.29 59.99 148.34 59.19 149.44 57.39 149.61 55.29 151.66 55.79 153.71 55.29 153.87 57.39 154.97 59.19 153.02 59.99Z"/>
<path transform="matrix(1,0,0,-1,4.334,144.648)" d="M158.03 60.38C158.03 61.4 157.21 62.22 156.19 62.22 155.17 62.22 154.35 61.4 154.35 60.38 154.35 59.36 155.17 58.54 156.19 58.54 157.21 58.54 158.03 59.36 158.03 60.38ZM156.19 60.38" fill="#57d157"/>
<path transform="matrix(1,0,0,-1,4.334,144.648)" stroke-width=".3985" stroke-linecap="butt" stroke-miterlimit="10" stroke-linejoin="miter" fill="none" stroke="#57d157" d="M158.03 60.38C158.03 61.4 157.21 62.22 156.19 62.22 155.17 62.22 154.35 61.4 154.35 60.38 154.35 59.36 155.17 58.54 156.19 58.54 157.21 58.54 158.03 59.36 158.03 60.38ZM156.19 60.38"/>
<path transform="matrix(1,0,0,-1,4.334,144.648)" d="M150.1 64.35C150.1 65.37 149.27 66.19 148.25 66.19 147.24 66.19 146.41 65.37 146.41 64.35 146.41 63.33 147.24 62.5 148.25 62.5 149.27 62.5 150.1 63.33 150.1 64.35ZM148.25 64.35" fill="#57d157"/>
<path transform="matrix(1,0,0,-1,4.334,144.648)" stroke-width=".3985" stroke-linecap="butt" stroke-miterlimit="10" stroke-linejoin="miter" fill="none" stroke="#57d157" d="M150.1 64.35C150.1 65.37 149.27 66.19 148.25 66.19 147.24 66.19 146.41 65.37 146.41 64.35 146.41 63.33 147.24 62.5 148.25 62.5 149.27 62.5 150.1 63.33 150.1 64.35ZM148.25 64.35"/>
<path transform="matrix(1,0,0,-1,4.334,144.648)" d="M133.09 41.67C133.09 42.69 132.26 43.51 131.25 43.51 130.23 43.51 129.4 42.69 129.4 41.67 129.4 40.65 130.23 39.83 131.25 39.83 132.26 39.83 133.09 40.65 133.09 41.67ZM131.25 41.67" fill="#57d157"/>
<path transform="matrix(1,0,0,-1,4.334,144.648)" stroke-width=".3985" stroke-linecap="butt" stroke-miterlimit="10" stroke-linejoin="miter" fill="none" stroke="#57d157" d="M133.09 41.67C133.09 42.69 132.26 43.51 131.25 43.51 130.23 43.51 129.4 42.69 129.4 41.67 129.4 40.65 130.23 39.83 131.25 39.83 132.26 39.83 133.09 40.65 133.09 41.67ZM131.25 41.67"/>
<path transform="matrix(1,0,0,-1,4.334,144.648)" d="M178.44 66.05C178.44 67.07 177.62 67.89 176.6 67.89 175.58 67.89 174.76 67.07 174.76 66.05 174.76 65.03 175.58 64.2 176.6 64.2 177.62 64.2 178.44 65.03 178.44 66.05ZM176.6 66.05" fill="#de4a4b"/>
<path transform="matrix(1,0,0,-1,4.334,144.648)" stroke-width=".3985" stroke-linecap="butt" stroke-miterlimit="10" stroke-linejoin="miter" fill="none" stroke="#de4a4b" d="M178.44 66.05C178.44 67.07 177.62 67.89 176.6 67.89 175.58 67.89 174.76 67.07 174.76 66.05 174.76 65.03 175.58 64.2 176.6 64.2 177.62 64.2 178.44 65.03 178.44 66.05ZM176.6 66.05"/>
<path transform="matrix(1,0,0,-1,4.334,144.648)" d="M169.94 38.27C169.94 39.29 169.11 40.11 168.1 40.11 167.08 40.11 166.25 39.29 166.25 38.27 166.25 37.25 167.08 36.43 168.1 36.43 169.11 36.43 169.94 37.25 169.94 38.27ZM168.1 38.27" fill="#de4a4b"/>
<path transform="matrix(1,0,0,-1,4.334,144.648)" stroke-width=".3985" stroke-linecap="butt" stroke-miterlimit="10" stroke-linejoin="miter" fill="none" stroke="#de4a4b" d="M169.94 38.27C169.94 39.29 169.11 40.11 168.1 40.11 167.08 40.11 166.25 39.29 166.25 38.27 166.25 37.25 167.08 36.43 168.1 36.43 169.11 36.43 169.94 37.25 169.94 38.27ZM168.1 38.27"/>
<path transform="matrix(1,0,0,-1,4.334,144.648)" d="M165.97 79.09C165.97 80.11 165.15 80.93 164.13 80.93 163.11 80.93 162.29 80.11 162.29 79.09 162.29 78.07 163.11 77.24 164.13 77.24 165.15 77.24 165.97 78.07 165.97 79.09ZM164.13 79.09" fill="#966abe"/>
<path transform="matrix(1,0,0,-1,4.334,144.648)" stroke-width=".3985" stroke-linecap="butt" stroke-miterlimit="10" stroke-linejoin="miter" fill="none" stroke="#966abe" d="M165.97 79.09C165.97 80.11 165.15 80.93 164.13 80.93 163.11 80.93 162.29 80.11 162.29 79.09 162.29 78.07 163.11 77.24 164.13 77.24 165.15 77.24 165.97 78.07 165.97 79.09ZM164.13 79.09"/>
<path transform="matrix(1,0,0,-1,4.334,144.648)" d="M151.51 51.87C151.51 52.89 150.69 53.72 149.67 53.72 148.65 53.72 147.83 52.89 147.83 51.87 147.83 50.86 148.65 50.03 149.67 50.03 150.69 50.03 151.51 50.86 151.51 51.87ZM149.67 51.87" fill="#966abe"/>
<path transform="matrix(1,0,0,-1,4.334,144.648)" stroke-width=".3985" stroke-linecap="butt" stroke-miterlimit="10" stroke-linejoin="miter" fill="none" stroke="#966abe" d="M151.51 51.87C151.51 52.89 150.69 53.72 149.67 53.72 148.65 53.72 147.83 52.89 147.83 51.87 147.83 50.86 148.65 50.03 149.67 50.03 150.69 50.03 151.51 50.86 151.51 51.87ZM149.67 51.87"/>
<path transform="matrix(1,0,0,-1,4.334,144.648)" d="M147.26 33.73C147.26 34.75 146.44 35.58 145.42 35.58 144.4 35.58 143.58 34.75 143.58 33.73 143.58 32.71 144.4 31.89 145.42 31.89 146.44 31.89 147.26 32.71 147.26 33.73ZM145.42 33.73" fill="#ff8d29"/>
<path transform="matrix(1,0,0,-1,4.334,144.648)" stroke-width=".3985" stroke-linecap="butt" stroke-miterlimit="10" stroke-linejoin="miter" fill="none" stroke="#ff8d29" d="M147.26 33.73C147.26 34.75 146.44 35.58 145.42 35.58 144.4 35.58 143.58 34.75 143.58 33.73 143.58 32.71 144.4 31.89 145.42 31.89 146.44 31.89 147.26 32.71 147.26 33.73ZM145.42 33.73"/>
<path transform="matrix(1,0,0,-1,4.334,144.648)" d="M186.38 53.01C186.38 54.03 185.56 54.85 184.54 54.85 183.52 54.85 182.69 54.03 182.69 53.01 182.69 51.99 183.52 51.17 184.54 51.17 185.56 51.17 186.38 51.99 186.38 53.01ZM184.54 53.01" fill="#57d157"/>
<path transform="matrix(1,0,0,-1,4.334,144.648)" stroke-width=".3985" stroke-linecap="butt" stroke-miterlimit="10" stroke-linejoin="miter" fill="none" stroke="#57d157" d="M186.38 53.01C186.38 54.03 185.56 54.85 184.54 54.85 183.52 54.85 182.69 54.03 182.69 53.01 182.69 51.99 183.52 51.17 184.54 51.17 185.56 51.17 186.38 51.99 186.38 53.01ZM184.54 53.01"/>
<path transform="matrix(1,0,0,-1,4.334,144.648)" d="M121.18 70.58C121.18 71.6 120.36 72.43 119.34 72.43 118.32 72.43 117.5 71.6 117.5 70.58 117.5 69.57 118.32 68.74 119.34 68.74 120.36 68.74 121.18 69.57 121.18 70.58ZM119.34 70.58" fill="#de4a4b"/>
<path transform="matrix(1,0,0,-1,4.334,144.648)" stroke-width=".3985" stroke-linecap="butt" stroke-miterlimit="10" stroke-linejoin="miter" fill="none" stroke="#de4a4b" d="M121.18 70.58C121.18 71.6 120.36 72.43 119.34 72.43 118.32 72.43 117.5 71.6 117.5 70.58 117.5 69.57 118.32 68.74 119.34 68.74 120.36 68.74 121.18 69.57 121.18 70.58ZM119.34 70.58"/>
<path transform="matrix(1,0,0,-1,4.334,144.648)" d="M125.72 84.19C125.72 85.21 124.89 86.03 123.88 86.03 122.86 86.03 122.03 85.21 122.03 84.19 122.03 83.17 122.86 82.35 123.88 82.35 124.89 82.35 125.72 83.17 125.72 84.19ZM123.88 84.19" fill="#ff8d29"/>
<path transform="matrix(1,0,0,-1,4.334,144.648)" stroke-width=".3985" stroke-linecap="butt" stroke-miterlimit="10" stroke-linejoin="miter" fill="none" stroke="#ff8d29" d="M125.72 84.19C125.72 85.21 124.89 86.03 123.88 86.03 122.86 86.03 122.03 85.21 122.03 84.19 122.03 83.17 122.86 82.35 123.88 82.35 124.89 82.35 125.72 83.17 125.72 84.19ZM123.88 84.19"/>
<use data-text="R" xlink:href="#font_3_4" transform="matrix(6.9738,0,0,-6.9738,40.243,138.958)" fill="#d9d9d9"/>
<use data-text="I" xlink:href="#font_3_1" transform="matrix(6.9738,0,0,-6.9738,43.946088,138.958)" fill="#d9d9d9"/>
<use data-text="=" xlink:href="#font_2_12" transform="matrix(6.9738,0,0,-6.9738,50.336999,138.958)" fill="#d9d9d9"/>
<use data-text="0" xlink:href="#font_2_5" transform="matrix(6.9738,0,0,-6.9738,59.137937,138.958)" fill="#d9d9d9"/>
<use data-text="." xlink:href="#font_2_3" transform="matrix(6.9738,0,0,-6.9738,63.113004,138.958)" fill="#d9d9d9"/>
<use data-text="6" xlink:href="#font_2_8" transform="matrix(6.9738,0,0,-6.9738,65.36554,138.958)" fill="#d9d9d9"/>
<use data-text="0" xlink:href="#font_2_5" transform="matrix(6.9738,0,0,-6.9738,69.34061,138.958)" fill="#d9d9d9"/>
<use data-text="R" xlink:href="#font_3_4" transform="matrix(6.9738,0,0,-6.9738,139.456,138.958)" fill="#d9d9d9"/>
<use data-text="I" xlink:href="#font_3_1" transform="matrix(6.9738,0,0,-6.9738,143.15909,138.958)" fill="#d9d9d9"/>
<use data-text="=" xlink:href="#font_2_12" transform="matrix(6.9738,0,0,-6.9738,149.54999,138.958)" fill="#d9d9d9"/>
<use data-text="0" xlink:href="#font_2_5" transform="matrix(6.9738,0,0,-6.9738,158.35092,138.958)" fill="#d9d9d9"/>
<use data-text="." xlink:href="#font_2_3" transform="matrix(6.9738,0,0,-6.9738,162.32599,138.958)" fill="#d9d9d9"/>
<use data-text="6" xlink:href="#font_2_8" transform="matrix(6.9738,0,0,-6.9738,164.57852,138.958)" fill="#d9d9d9"/>
<use data-text="0" xlink:href="#font_2_5" transform="matrix(6.9738,0,0,-6.9738,168.55359,138.958)" fill="#d9d9d9"/>
<path transform="matrix(1,0,0,-1,4.334,144.648)" d="M226.77 2.99V137.33C226.77 138.98 228.11 140.32 229.76 140.32H439.22C440.87 140.32 442.21 138.98 442.21 137.33V2.99C442.21 1.34 440.87 0 439.22 0H229.76C228.11 0 226.77 1.34 226.77 2.99ZM442.21 140.32" fill="#212121"/>
<path transform="matrix(1,0,0,-1,4.334,144.648)" stroke-width=".69739" stroke-linecap="butt" stroke-miterlimit="10" stroke-linejoin="miter" fill="none" stroke="#a6a6a6" d="M226.77 2.99V137.33C226.77 138.98 228.11 140.32 229.76 140.32H439.22C440.87 140.32 442.21 138.98 442.21 137.33V2.99C442.21 1.34 440.87 0 439.22 0H229.76C228.11 0 226.77 1.34 226.77 2.99ZM442.21 140.32"/>
<use data-text="M" xlink:href="#font_1_2" transform="matrix(9.9626,0,0,-9.9626,240.294,16.731995)"/>
<use data-text="a" xlink:href="#font_1_4" transform="matrix(9.9626,0,0,-9.9626,245.52437,16.731995)"/>
<use data-text="R" xlink:href="#font_1_3" transform="matrix(9.9626,0,0,-9.9626,250.75473,16.731995)"/>
<use data-text="I" xlink:href="#font_1_1" transform="matrix(9.9626,0,0,-9.9626,255.98509,16.731995)"/>
<use data-text="M" xlink:href="#font_2_17" transform="matrix(6.9738,0,0,-6.9738,240.294,26.768998)" fill="#cccccc"/>
<use data-text="a" xlink:href="#font_2_19" transform="matrix(6.9738,0,0,-6.9738,247.46308,26.768998)" fill="#cccccc"/>
<use data-text="r" xlink:href="#font_2_32" transform="matrix(6.9738,0,0,-6.9738,251.43814,26.768998)" fill="#cccccc"/>
<use data-text="g" xlink:href="#font_2_24" transform="matrix(6.9738,0,0,-6.9738,254.54846,26.768998)" fill="#cccccc"/>
<use data-text="i" xlink:href="#font_2_26" transform="matrix(6.9738,0,0,-6.9738,258.52354,26.768998)" fill="#cccccc"/>
<use data-text="n" xlink:href="#font_2_30" transform="matrix(6.9738,0,0,-6.9738,260.77607,26.768998)" fill="#cccccc"/>
<use data-text="-" xlink:href="#font_2_2" transform="matrix(6.9738,0,0,-6.9738,265.17655,26.768998)" fill="#cccccc"/>
<use data-text="a" xlink:href="#font_2_19" transform="matrix(6.9738,0,0,-6.9738,267.86146,26.768998)" fill="#cccccc"/>
<use data-text="w" xlink:href="#font_2_37" transform="matrix(6.9738,0,0,-6.9738,271.62034,26.768998)" fill="#cccccc"/>
<use data-text="a" xlink:href="#font_2_19" transform="matrix(6.9738,0,0,-6.9738,277.09477,26.768998)" fill="#cccccc"/>
<use data-text="r" xlink:href="#font_2_32" transform="matrix(6.9738,0,0,-6.9738,281.06983,26.768998)" fill="#cccccc"/>
<use data-text="e" xlink:href="#font_2_23" transform="matrix(6.9738,0,0,-6.9738,284.18016,26.768998)" fill="#cccccc"/>
<use data-text=":" xlink:href="#font_2_11" transform="matrix(6.9738,0,0,-6.9738,287.72285,26.768998)" fill="#cccccc"/>
<use data-text="l" xlink:href="#font_2_28" transform="matrix(6.9738,0,0,-6.9738,293.51808,26.768998)" fill="#cccccc"/>
<use data-text="i" xlink:href="#font_2_26" transform="matrix(6.9738,0,0,-6.9738,295.7706,26.768998)" fill="#cccccc"/>
<use data-text="n" xlink:href="#font_2_30" transform="matrix(6.9738,0,0,-6.9738,298.02314,26.768998)" fill="#cccccc"/>
<use data-text="e" xlink:href="#font_2_23" transform="matrix(6.9738,0,0,-6.9738,302.4236,26.768998)" fill="#cccccc"/>
<use data-text="t" xlink:href="#font_2_34" transform="matrix(6.9738,0,0,-6.9738,308.6512,26.768998)" fill="#cccccc"/>
<use data-text="h" xlink:href="#font_2_25" transform="matrix(6.9738,0,0,-6.9738,311.76155,26.768998)" fill="#cccccc"/>
<use data-text="i" xlink:href="#font_2_26" transform="matrix(6.9738,0,0,-6.9738,316.16203,26.768998)" fill="#cccccc"/>
<use data-text="c" xlink:href="#font_2_21" transform="matrix(6.9738,0,0,-6.9738,318.41456,26.768998)" fill="#cccccc"/>
<use data-text="k" xlink:href="#font_2_27" transform="matrix(6.9738,0,0,-6.9738,321.74803,26.768998)" fill="#cccccc"/>
<use data-text="n" xlink:href="#font_2_30" transform="matrix(6.9738,0,0,-6.9738,325.9323,26.768998)" fill="#cccccc"/>
<use data-text="e" xlink:href="#font_2_23" transform="matrix(6.9738,0,0,-6.9738,330.3328,26.768998)" fill="#cccccc"/>
<use data-text="s" xlink:href="#font_2_33" transform="matrix(6.9738,0,0,-6.9738,333.8755,26.768998)" fill="#cccccc"/>
<use data-text="s" xlink:href="#font_2_33" transform="matrix(6.9738,0,0,-6.9738,337.0346,26.768998)" fill="#cccccc"/>
<use data-text="i" xlink:href="#font_2_26" transform="matrix(6.9738,0,0,-6.9738,342.87864,26.768998)" fill="#cccccc"/>
<use data-text="n" xlink:href="#font_2_30" transform="matrix(6.9738,0,0,-6.9738,345.13117,26.768998)" fill="#cccccc"/>
<use data-text="d" xlink:href="#font_2_22" transform="matrix(6.9738,0,0,-6.9738,349.53166,26.768998)" fill="#cccccc"/>
<use data-text="i" xlink:href="#font_2_26" transform="matrix(6.9738,0,0,-6.9738,353.92515,26.768998)" fill="#cccccc"/>
<use data-text="c" xlink:href="#font_2_21" transform="matrix(6.9738,0,0,-6.9738,356.18467,26.768998)" fill="#cccccc"/>
<use data-text="a" xlink:href="#font_2_19" transform="matrix(6.9738,0,0,-6.9738,359.72737,26.768998)" fill="#cccccc"/>
<use data-text="t" xlink:href="#font_2_34" transform="matrix(6.9738,0,0,-6.9738,363.70243,26.768998)" fill="#cccccc"/>
<use data-text="e" xlink:href="#font_2_23" transform="matrix(6.9738,0,0,-6.9738,366.81275,26.768998)" fill="#cccccc"/>
<use data-text="s" xlink:href="#font_2_33" transform="matrix(6.9738,0,0,-6.9738,370.35545,26.768998)" fill="#cccccc"/>
<use data-text="s" xlink:href="#font_2_33" transform="matrix(6.9738,0,0,-6.9738,376.1925,26.768998)" fill="#cccccc"/>
<use data-text="t" xlink:href="#font_2_34" transform="matrix(6.9738,0,0,-6.9738,379.35163,26.768998)" fill="#cccccc"/>
<use data-text="r" xlink:href="#font_2_32" transform="matrix(6.9738,0,0,-6.9738,382.46894,26.768998)" fill="#cccccc"/>
<use data-text="o" xlink:href="#font_2_31" transform="matrix(6.9738,0,0,-6.9738,385.57926,26.768998)" fill="#cccccc"/>
<use data-text="n" xlink:href="#font_2_30" transform="matrix(6.9738,0,0,-6.9738,389.54734,26.768998)" fill="#cccccc"/>
<use data-text="g" xlink:href="#font_2_24" transform="matrix(6.9738,0,0,-6.9738,393.9478,26.768998)" fill="#cccccc"/>
<use data-text="e" xlink:href="#font_2_23" transform="matrix(6.9738,0,0,-6.9738,397.92289,26.768998)" fill="#cccccc"/>
<use data-text="r" xlink:href="#font_2_32" transform="matrix(6.9738,0,0,-6.9738,401.46559,26.768998)" fill="#cccccc"/>
<use data-text="i" xlink:href="#font_2_26" transform="matrix(6.9738,0,0,-6.9738,407.2608,26.768998)" fill="#cccccc"/>
<use data-text="n" xlink:href="#font_2_30" transform="matrix(6.9738,0,0,-6.9738,409.51335,26.768998)" fill="#cccccc"/>
<use data-text="f" xlink:href="#font_2_1" transform="matrix(6.9738,0,0,-6.9738,413.91383,26.768998)" fill="#cccccc"/>
<use data-text="u" xlink:href="#font_2_35" transform="matrix(6.9738,0,0,-6.9738,418.42588,26.768998)" fill="#cccccc"/>
<use data-text="e" xlink:href="#font_2_23" transform="matrix(6.9738,0,0,-6.9738,422.82637,26.768998)" fill="#cccccc"/>
<use data-text="n" xlink:href="#font_2_30" transform="matrix(6.9738,0,0,-6.9738,426.36906,26.768998)" fill="#cccccc"/>
<use data-text="c" xlink:href="#font_2_21" transform="matrix(6.9738,0,0,-6.9738,430.76954,26.768998)" fill="#cccccc"/>
<use data-text="e" xlink:href="#font_2_23" transform="matrix(6.9738,0,0,-6.9738,434.31224,26.768998)" fill="#cccccc"/>
<use data-text="M" xlink:href="#font_2_17" transform="matrix(6.9738,0,0,-6.9738,268.488,41.631998)"/>
<use data-text="o" xlink:href="#font_2_31" transform="matrix(6.9738,0,0,-6.9738,275.65708,41.631998)"/>
<use data-text="d" xlink:href="#font_2_22" transform="matrix(6.9738,0,0,-6.9738,279.84834,41.631998)"/>
<use data-text="e" xlink:href="#font_2_23" transform="matrix(6.9738,0,0,-6.9738,284.2488,41.631998)"/>
<use data-text="l" xlink:href="#font_2_28" transform="matrix(6.9738,0,0,-6.9738,287.7915,41.631998)"/>
<use data-text="A" xlink:href="#font_2_13" transform="matrix(6.9738,0,0,-6.9738,292.72895,41.631998)"/>
<path transform="matrix(1,0,0,-1,4.334,144.648)" stroke-width=".64757" stroke-linecap="butt" stroke-miterlimit="10" stroke-linejoin="miter" fill="none" stroke="#b2b3b2" d="M238.11 17.01V99.21H320.32V17.01ZM320.32 99.21"/>
<path transform="matrix(1,0,0,-1,4.334,144.648)" stroke-width=".69739" stroke-linecap="butt" stroke-dasharray=".69739,.99628" stroke-miterlimit="10" stroke-linejoin="miter" fill="none" stroke="#a6a6a6" d="M308.41 58.11C308.41 74.24 295.34 87.31 279.22 87.31 263.09 87.31 250.02 74.24 250.02 58.11 250.02 41.99 263.09 28.91 279.22 28.91 295.34 28.91 308.41 41.99 308.41 58.11ZM279.22 58.11"/>
<path transform="matrix(1,0,0,-1,4.334,144.648)" d="M279.22 61.6 277.85 59.99 275.9 59.19 277.01 57.39 277.17 55.29 279.22 55.79 281.27 55.29 281.43 57.39 282.53 59.19 280.58 59.99Z" fill="#48a2e0"/>
<path transform="matrix(1,0,0,-1,4.334,144.648)" stroke-width=".3985" stroke-linecap="butt" stroke-miterlimit="10" stroke-linejoin="miter" fill="none" stroke="#48a2e0" d="M279.22 61.6 277.85 59.99 275.9 59.19 277.01 57.39 277.17 55.29 279.22 55.79 281.27 55.29 281.43 57.39 282.53 59.19 280.58 59.99Z"/>
<path transform="matrix(1,0,0,-1,4.334,144.648)" stroke-width=".44832" stroke-linecap="butt" stroke-miterlimit="10" stroke-linejoin="miter" fill="none" stroke="#57d157" d="M279.22 58.11 259.37 68.03"/>
<path transform="matrix(1,0,0,-1,4.334,144.648)" stroke-width=".41843" stroke-linecap="butt" stroke-miterlimit="10" stroke-linejoin="miter" fill="none" stroke="#57d157" d="M279.22 58.11 300.48 63.78"/>
<path transform="matrix(1,0,0,-1,4.334,144.648)" stroke-width=".3985" stroke-linecap="butt" stroke-miterlimit="10" stroke-linejoin="miter" fill="none" stroke="#57d157" d="M279.22 58.11 283.47 35.43"/>
<path transform="matrix(1,0,0,-1,4.334,144.648)" stroke-width="1.94273" stroke-linecap="butt" stroke-miterlimit="10" stroke-linejoin="miter" fill="none" stroke="#de4a4b" d="M279.22 58.11 284.89 61.51"/>
<path transform="matrix(1,0,0,-1,4.334,144.648)" stroke-width="1.69366" stroke-linecap="butt" stroke-miterlimit="10" stroke-linejoin="miter" fill="none" stroke="#de4a4b" d="M279.22 58.11 274.11 53.01"/>
<path transform="matrix(1,0,0,-1,4.334,144.648)" d="M261.22 68.03C261.22 69.05 260.39 69.88 259.37 69.88 258.36 69.88 257.53 69.05 257.53 68.03 257.53 67.01 258.36 66.19 259.37 66.19 260.39 66.19 261.22 67.01 261.22 68.03ZM259.37 68.03" fill="#57d157"/>
<path transform="matrix(1,0,0,-1,4.334,144.648)" stroke-width=".3985" stroke-linecap="butt" stroke-miterlimit="10" stroke-linejoin="miter" fill="none" stroke="#57d157" d="M261.22 68.03C261.22 69.05 260.39 69.88 259.37 69.88 258.36 69.88 257.53 69.05 257.53 68.03 257.53 67.01 258.36 66.19 259.37 66.19 260.39 66.19 261.22 67.01 261.22 68.03ZM259.37 68.03"/>
<path transform="matrix(1,0,0,-1,4.334,144.648)" d="M302.32 63.78C302.32 64.8 301.49 65.62 300.48 65.62 299.46 65.62 298.63 64.8 298.63 63.78 298.63 62.76 299.46 61.94 300.48 61.94 301.49 61.94 302.32 62.76 302.32 63.78ZM300.48 63.78" fill="#57d157"/>
<path transform="matrix(1,0,0,-1,4.334,144.648)" stroke-width=".3985" stroke-linecap="butt" stroke-miterlimit="10" stroke-linejoin="miter" fill="none" stroke="#57d157" d="M302.32 63.78C302.32 64.8 301.49 65.62 300.48 65.62 299.46 65.62 298.63 64.8 298.63 63.78 298.63 62.76 299.46 61.94 300.48 61.94 301.49 61.94 302.32 62.76 302.32 63.78ZM300.48 63.78"/>
<path transform="matrix(1,0,0,-1,4.334,144.648)" d="M285.31 35.43C285.31 36.45 284.49 37.28 283.47 37.28 282.45 37.28 281.62 36.45 281.62 35.43 281.62 34.42 282.45 33.59 283.47 33.59 284.49 33.59 285.31 34.42 285.31 35.43ZM283.47 35.43" fill="#57d157"/>
<path transform="matrix(1,0,0,-1,4.334,144.648)" stroke-width=".3985" stroke-linecap="butt" stroke-miterlimit="10" stroke-linejoin="miter" fill="none" stroke="#57d157" d="M285.31 35.43C285.31 36.45 284.49 37.28 283.47 37.28 282.45 37.28 281.62 36.45 281.62 35.43 281.62 34.42 282.45 33.59 283.47 33.59 284.49 33.59 285.31 34.42 285.31 35.43ZM283.47 35.43"/>
<path transform="matrix(1,0,0,-1,4.334,144.648)" d="M286.73 61.51C286.73 62.53 285.9 63.36 284.89 63.36 283.87 63.36 283.04 62.53 283.04 61.51 283.04 60.49 283.87 59.67 284.89 59.67 285.9 59.67 286.73 60.49 286.73 61.51ZM284.89 61.51" fill="#de4a4b"/>
<path transform="matrix(1,0,0,-1,4.334,144.648)" stroke-width=".3985" stroke-linecap="butt" stroke-miterlimit="10" stroke-linejoin="miter" fill="none" stroke="#de4a4b" d="M286.73 61.51C286.73 62.53 285.9 63.36 284.89 63.36 283.87 63.36 283.04 62.53 283.04 61.51 283.04 60.49 283.87 59.67 284.89 59.67 285.9 59.67 286.73 60.49 286.73 61.51ZM284.89 61.51"/>
<path transform="matrix(1,0,0,-1,4.334,144.648)" d="M275.96 53.01C275.96 54.03 275.13 54.85 274.11 54.85 273.1 54.85 272.27 54.03 272.27 53.01 272.27 51.99 273.1 51.17 274.11 51.17 275.13 51.17 275.96 51.99 275.96 53.01ZM274.11 53.01" fill="#de4a4b"/>
<path transform="matrix(1,0,0,-1,4.334,144.648)" stroke-width=".3985" stroke-linecap="butt" stroke-miterlimit="10" stroke-linejoin="miter" fill="none" stroke="#de4a4b" d="M275.96 53.01C275.96 54.03 275.13 54.85 274.11 54.85 273.1 54.85 272.27 54.03 272.27 53.01 272.27 51.99 273.1 51.17 274.11 51.17 275.13 51.17 275.96 51.99 275.96 53.01ZM274.11 53.01"/>
<path transform="matrix(1,0,0,-1,4.334,144.648)" d="M314.51 64.35C314.51 65.37 313.68 66.19 312.67 66.19 311.65 66.19 310.82 65.37 310.82 64.35 310.82 63.33 311.65 62.5 312.67 62.5 313.68 62.5 314.51 63.33 314.51 64.35ZM312.67 64.35" fill="#57d157"/>
<path transform="matrix(1,0,0,-1,4.334,144.648)" stroke-width=".3985" stroke-linecap="butt" stroke-miterlimit="10" stroke-linejoin="miter" fill="none" stroke="#57d157" d="M314.51 64.35C314.51 65.37 313.68 66.19 312.67 66.19 311.65 66.19 310.82 65.37 310.82 64.35 310.82 63.33 311.65 62.5 312.67 62.5 313.68 62.5 314.51 63.33 314.51 64.35ZM312.67 64.35"/>
<path transform="matrix(1,0,0,-1,4.334,144.648)" d="M247.61 49.04C247.61 50.06 246.79 50.88 245.77 50.88 244.75 50.88 243.92 50.06 243.92 49.04 243.92 48.02 244.75 47.2 245.77 47.2 246.79 47.2 247.61 48.02 247.61 49.04ZM245.77 49.04" fill="#de4a4b"/>
<path transform="matrix(1,0,0,-1,4.334,144.648)" stroke-width=".3985" stroke-linecap="butt" stroke-miterlimit="10" stroke-linejoin="miter" fill="none" stroke="#de4a4b" d="M247.61 49.04C247.61 50.06 246.79 50.88 245.77 50.88 244.75 50.88 243.92 50.06 243.92 49.04 243.92 48.02 244.75 47.2 245.77 47.2 246.79 47.2 247.61 48.02 247.61 49.04ZM245.77 49.04"/>
<path transform="matrix(1,0,0,-1,4.334,144.648)" d="M264.62 77.95C264.62 78.97 263.79 79.8 262.78 79.8 261.76 79.8 260.93 78.97 260.93 77.95 260.93 76.94 261.76 76.11 262.78 76.11 263.79 76.11 264.62 76.94 264.62 77.95ZM262.78 77.95" fill="#966abe"/>
<path transform="matrix(1,0,0,-1,4.334,144.648)" stroke-width=".3985" stroke-linecap="butt" stroke-miterlimit="10" stroke-linejoin="miter" fill="none" stroke="#966abe" d="M264.62 77.95C264.62 78.97 263.79 79.8 262.78 79.8 261.76 79.8 260.93 78.97 260.93 77.95 260.93 76.94 261.76 76.11 262.78 76.11 263.79 76.11 264.62 76.94 264.62 77.95ZM262.78 77.95"/>
<path transform="matrix(1,0,0,-1,4.334,144.648)" d="M298.63 46.77C298.63 47.79 297.81 48.62 296.79 48.62 295.77 48.62 294.95 47.79 294.95 46.77 294.95 45.75 295.77 44.93 296.79 44.93 297.81 44.93 298.63 45.75 298.63 46.77ZM296.79 46.77" fill="#ff8d29"/>
<path transform="matrix(1,0,0,-1,4.334,144.648)" stroke-width=".3985" stroke-linecap="butt" stroke-miterlimit="10" stroke-linejoin="miter" fill="none" stroke="#ff8d29" d="M298.63 46.77C298.63 47.79 297.81 48.62 296.79 48.62 295.77 48.62 294.95 47.79 294.95 46.77 294.95 45.75 295.77 44.93 296.79 44.93 297.81 44.93 298.63 45.75 298.63 46.77ZM296.79 46.77"/>
<path transform="matrix(1,0,0,-1,4.334,144.648)" d="M276.81 65.2C276.81 66.22 275.98 67.04 274.96 67.04 273.95 67.04 273.12 66.22 273.12 65.2 273.12 64.18 273.95 63.35 274.96 63.35 275.98 63.35 276.81 64.18 276.81 65.2ZM274.96 65.2" fill="#966abe"/>
<path transform="matrix(1,0,0,-1,4.334,144.648)" stroke-width=".3985" stroke-linecap="butt" stroke-miterlimit="10" stroke-linejoin="miter" fill="none" stroke="#966abe" d="M276.81 65.2C276.81 66.22 275.98 67.04 274.96 67.04 273.95 67.04 273.12 66.22 273.12 65.2 273.12 64.18 273.95 63.35 274.96 63.35 275.98 63.35 276.81 64.18 276.81 65.2ZM274.96 65.2"/>
<path transform="matrix(1,0,0,-1,4.334,144.648)" d="M308.84 85.04C308.84 86.06 308.01 86.88 307 86.88 305.98 86.88 305.15 86.06 305.15 85.04 305.15 84.02 305.98 83.2 307 83.2 308.01 83.2 308.84 84.02 308.84 85.04ZM307 85.04" fill="#ff8d29"/>
<path transform="matrix(1,0,0,-1,4.334,144.648)" stroke-width=".3985" stroke-linecap="butt" stroke-miterlimit="10" stroke-linejoin="miter" fill="none" stroke="#ff8d29" d="M308.84 85.04C308.84 86.06 308.01 86.88 307 86.88 305.98 86.88 305.15 86.06 305.15 85.04 305.15 84.02 305.98 83.2 307 83.2 308.01 83.2 308.84 84.02 308.84 85.04ZM307 85.04"/>
<use data-text="M" xlink:href="#font_2_17" transform="matrix(6.9738,0,0,-6.9738,367.85704,41.631998)"/>
<use data-text="o" xlink:href="#font_2_31" transform="matrix(6.9738,0,0,-6.9738,375.0261,41.631998)"/>
<use data-text="d" xlink:href="#font_2_22" transform="matrix(6.9738,0,0,-6.9738,379.21736,41.631998)"/>
<use data-text="e" xlink:href="#font_2_23" transform="matrix(6.9738,0,0,-6.9738,383.61784,41.631998)"/>
<use data-text="l" xlink:href="#font_2_28" transform="matrix(6.9738,0,0,-6.9738,387.16053,41.631998)"/>
<use data-text="B" xlink:href="#font_2_14" transform="matrix(6.9738,0,0,-6.9738,392.09797,41.631998)"/>
<path transform="matrix(1,0,0,-1,4.334,144.648)" stroke-width=".64757" stroke-linecap="butt" stroke-miterlimit="10" stroke-linejoin="miter" fill="none" stroke="#b2b3b2" d="M337.33 17.01V99.21H419.53V17.01ZM419.53 99.21"/>
<path transform="matrix(1,0,0,-1,4.334,144.648)" stroke-width=".69739" stroke-linecap="butt" stroke-dasharray=".69739,.99628" stroke-miterlimit="10" stroke-linejoin="miter" fill="none" stroke="#a6a6a6" d="M407.63 58.11C407.63 74.24 394.56 87.31 378.43 87.31 362.3 87.31 349.23 74.24 349.23 58.11 349.23 41.99 362.3 28.91 378.43 28.91 394.56 28.91 407.63 41.99 407.63 58.11ZM378.43 58.11"/>
<path transform="matrix(1,0,0,-1,4.334,144.648)" d="M378.43 61.6 377.06 59.99 375.11 59.19 376.22 57.39 376.38 55.29 378.43 55.79 380.48 55.29 380.64 57.39 381.75 59.19 379.8 59.99Z" fill="#48a2e0"/>
<path transform="matrix(1,0,0,-1,4.334,144.648)" stroke-width=".3985" stroke-linecap="butt" stroke-miterlimit="10" stroke-linejoin="miter" fill="none" stroke="#48a2e0" d="M378.43 61.6 377.06 59.99 375.11 59.19 376.22 57.39 376.38 55.29 378.43 55.79 380.48 55.29 380.64 57.39 381.75 59.19 379.8 59.99Z"/>
<path transform="matrix(1,0,0,-1,4.334,144.648)" stroke-width="1.94273" stroke-linecap="butt" stroke-miterlimit="10" stroke-linejoin="miter" fill="none" stroke="#57d157" d="M378.43 58.11 382.97 60.38"/>
<path transform="matrix(1,0,0,-1,4.334,144.648)" stroke-width="1.74348" stroke-linecap="butt" stroke-miterlimit="10" stroke-linejoin="miter" fill="none" stroke="#57d157" d="M378.43 58.11 375.03 64.35"/>
<path transform="matrix(1,0,0,-1,4.334,144.648)" stroke-width=".49814" stroke-linecap="butt" stroke-miterlimit="10" stroke-linejoin="miter" fill="none" stroke="#57d157" d="M378.43 58.11 358.02 41.67"/>
<path transform="matrix(1,0,0,-1,4.334,144.648)" stroke-width=".3985" stroke-linecap="butt" stroke-miterlimit="10" stroke-linejoin="miter" fill="none" stroke="#de4a4b" d="M378.43 58.11 403.38 66.05"/>
<path transform="matrix(1,0,0,-1,4.334,144.648)" stroke-width=".41843" stroke-linecap="butt" stroke-miterlimit="10" stroke-linejoin="miter" fill="none" stroke="#de4a4b" d="M378.43 58.11 394.87 38.27"/>
<path transform="matrix(1,0,0,-1,4.334,144.648)" d="M384.81 60.38C384.81 61.4 383.98 62.22 382.97 62.22 381.95 62.22 381.12 61.4 381.12 60.38 381.12 59.36 381.95 58.54 382.97 58.54 383.98 58.54 384.81 59.36 384.81 60.38ZM382.97 60.38" fill="#57d157"/>
<path transform="matrix(1,0,0,-1,4.334,144.648)" stroke-width=".3985" stroke-linecap="butt" stroke-miterlimit="10" stroke-linejoin="miter" fill="none" stroke="#57d157" d="M384.81 60.38C384.81 61.4 383.98 62.22 382.97 62.22 381.95 62.22 381.12 61.4 381.12 60.38 381.12 59.36 381.95 58.54 382.97 58.54 383.98 58.54 384.81 59.36 384.81 60.38ZM382.97 60.38"/>
<path transform="matrix(1,0,0,-1,4.334,144.648)" d="M376.87 64.35C376.87 65.37 376.05 66.19 375.03 66.19 374.01 66.19 373.19 65.37 373.19 64.35 373.19 63.33 374.01 62.5 375.03 62.5 376.05 62.5 376.87 63.33 376.87 64.35ZM375.03 64.35" fill="#57d157"/>
<path transform="matrix(1,0,0,-1,4.334,144.648)" stroke-width=".3985" stroke-linecap="butt" stroke-miterlimit="10" stroke-linejoin="miter" fill="none" stroke="#57d157" d="M376.87 64.35C376.87 65.37 376.05 66.19 375.03 66.19 374.01 66.19 373.19 65.37 373.19 64.35 373.19 63.33 374.01 62.5 375.03 62.5 376.05 62.5 376.87 63.33 376.87 64.35ZM375.03 64.35"/>
<path transform="matrix(1,0,0,-1,4.334,144.648)" d="M359.86 41.67C359.86 42.69 359.04 43.51 358.02 43.51 357 43.51 356.18 42.69 356.18 41.67 356.18 40.65 357 39.83 358.02 39.83 359.04 39.83 359.86 40.65 359.86 41.67ZM358.02 41.67" fill="#57d157"/>
<path transform="matrix(1,0,0,-1,4.334,144.648)" stroke-width=".3985" stroke-linecap="butt" stroke-miterlimit="10" stroke-linejoin="miter" fill="none" stroke="#57d157" d="M359.86 41.67C359.86 42.69 359.04 43.51 358.02 43.51 357 43.51 356.18 42.69 356.18 41.67 356.18 40.65 357 39.83 358.02 39.83 359.04 39.83 359.86 40.65 359.86 41.67ZM358.02 41.67"/>
<path transform="matrix(1,0,0,-1,4.334,144.648)" d="M405.22 66.05C405.22 67.07 404.39 67.89 403.38 67.89 402.36 67.89 401.53 67.07 401.53 66.05 401.53 65.03 402.36 64.2 403.38 64.2 404.39 64.2 405.22 65.03 405.22 66.05ZM403.38 66.05" fill="#de4a4b"/>
<path transform="matrix(1,0,0,-1,4.334,144.648)" stroke-width=".3985" stroke-linecap="butt" stroke-miterlimit="10" stroke-linejoin="miter" fill="none" stroke="#de4a4b" d="M405.22 66.05C405.22 67.07 404.39 67.89 403.38 67.89 402.36 67.89 401.53 67.07 401.53 66.05 401.53 65.03 402.36 64.2 403.38 64.2 404.39 64.2 405.22 65.03 405.22 66.05ZM403.38 66.05"/>
<path transform="matrix(1,0,0,-1,4.334,144.648)" d="M396.71 38.27C396.71 39.29 395.89 40.11 394.87 40.11 393.85 40.11 393.03 39.29 393.03 38.27 393.03 37.25 393.85 36.43 394.87 36.43 395.89 36.43 396.71 37.25 396.71 38.27ZM394.87 38.27" fill="#de4a4b"/>
<path transform="matrix(1,0,0,-1,4.334,144.648)" stroke-width=".3985" stroke-linecap="butt" stroke-miterlimit="10" stroke-linejoin="miter" fill="none" stroke="#de4a4b" d="M396.71 38.27C396.71 39.29 395.89 40.11 394.87 40.11 393.85 40.11 393.03 39.29 393.03 38.27 393.03 37.25 393.85 36.43 394.87 36.43 395.89 36.43 396.71 37.25 396.71 38.27ZM394.87 38.27"/>
<path transform="matrix(1,0,0,-1,4.334,144.648)" d="M413.16 53.01C413.16 54.03 412.33 54.85 411.31 54.85 410.29 54.85 409.47 54.03 409.47 53.01 409.47 51.99 410.29 51.17 411.31 51.17 412.33 51.17 413.16 51.99 413.16 53.01ZM411.31 53.01" fill="#57d157"/>
<path transform="matrix(1,0,0,-1,4.334,144.648)" stroke-width=".3985" stroke-linecap="butt" stroke-miterlimit="10" stroke-linejoin="miter" fill="none" stroke="#57d157" d="M413.16 53.01C413.16 54.03 412.33 54.85 411.31 54.85 410.29 54.85 409.47 54.03 409.47 53.01 409.47 51.99 410.29 51.17 411.31 51.17 412.33 51.17 413.16 51.99 413.16 53.01ZM411.31 53.01"/>
<path transform="matrix(1,0,0,-1,4.334,144.648)" d="M347.96 70.58C347.96 71.6 347.13 72.43 346.11 72.43 345.1 72.43 344.27 71.6 344.27 70.58 344.27 69.57 345.1 68.74 346.11 68.74 347.13 68.74 347.96 69.57 347.96 70.58ZM346.11 70.58" fill="#de4a4b"/>
<path transform="matrix(1,0,0,-1,4.334,144.648)" stroke-width=".3985" stroke-linecap="butt" stroke-miterlimit="10" stroke-linejoin="miter" fill="none" stroke="#de4a4b" d="M347.96 70.58C347.96 71.6 347.13 72.43 346.11 72.43 345.1 72.43 344.27 71.6 344.27 70.58 344.27 69.57 345.1 68.74 346.11 68.74 347.13 68.74 347.96 69.57 347.96 70.58ZM346.11 70.58"/>
<path transform="matrix(1,0,0,-1,4.334,144.648)" d="M392.75 79.09C392.75 80.11 391.92 80.93 390.9 80.93 389.88 80.93 389.06 80.11 389.06 79.09 389.06 78.07 389.88 77.24 390.9 77.24 391.92 77.24 392.75 78.07 392.75 79.09ZM390.9 79.09" fill="#966abe"/>
<path transform="matrix(1,0,0,-1,4.334,144.648)" stroke-width=".3985" stroke-linecap="butt" stroke-miterlimit="10" stroke-linejoin="miter" fill="none" stroke="#966abe" d="M392.75 79.09C392.75 80.11 391.92 80.93 390.9 80.93 389.88 80.93 389.06 80.11 389.06 79.09 389.06 78.07 389.88 77.24 390.9 77.24 391.92 77.24 392.75 78.07 392.75 79.09ZM390.9 79.09"/>
<path transform="matrix(1,0,0,-1,4.334,144.648)" d="M374.04 39.4C374.04 40.42 373.21 41.25 372.19 41.25 371.18 41.25 370.35 40.42 370.35 39.4 370.35 38.38 371.18 37.56 372.19 37.56 373.21 37.56 374.04 38.38 374.04 39.4ZM372.19 39.4" fill="#ff8d29"/>
<path transform="matrix(1,0,0,-1,4.334,144.648)" stroke-width=".3985" stroke-linecap="butt" stroke-miterlimit="10" stroke-linejoin="miter" fill="none" stroke="#ff8d29" d="M374.04 39.4C374.04 40.42 373.21 41.25 372.19 41.25 371.18 41.25 370.35 40.42 370.35 39.4 370.35 38.38 371.18 37.56 372.19 37.56 373.21 37.56 374.04 38.38 374.04 39.4ZM372.19 39.4"/>
<path transform="matrix(1,0,0,-1,4.334,144.648)" d="M378.29 51.87C378.29 52.89 377.46 53.72 376.45 53.72 375.43 53.72 374.6 52.89 374.6 51.87 374.6 50.86 375.43 50.03 376.45 50.03 377.46 50.03 378.29 50.86 378.29 51.87ZM376.45 51.87" fill="#966abe"/>
<path transform="matrix(1,0,0,-1,4.334,144.648)" stroke-width=".3985" stroke-linecap="butt" stroke-miterlimit="10" stroke-linejoin="miter" fill="none" stroke="#966abe" d="M378.29 51.87C378.29 52.89 377.46 53.72 376.45 53.72 375.43 53.72 374.6 52.89 374.6 51.87 374.6 50.86 375.43 50.03 376.45 50.03 377.46 50.03 378.29 50.86 378.29 51.87ZM376.45 51.87"/>
<path transform="matrix(1,0,0,-1,4.334,144.648)" d="M352.49 84.19C352.49 85.21 351.67 86.03 350.65 86.03 349.63 86.03 348.81 85.21 348.81 84.19 348.81 83.17 349.63 82.35 350.65 82.35 351.67 82.35 352.49 83.17 352.49 84.19ZM350.65 84.19" fill="#ff8d29"/>
<path transform="matrix(1,0,0,-1,4.334,144.648)" stroke-width=".3985" stroke-linecap="butt" stroke-miterlimit="10" stroke-linejoin="miter" fill="none" stroke="#ff8d29" d="M352.49 84.19C352.49 85.21 351.67 86.03 350.65 86.03 349.63 86.03 348.81 85.21 348.81 84.19 348.81 83.17 349.63 82.35 350.65 82.35 351.67 82.35 352.49 83.17 352.49 84.19ZM350.65 84.19"/>
<use data-text="M" xlink:href="#font_3_2" transform="matrix(6.9738,0,0,-6.9738,263.31004,138.958)" fill="#d9d9d9"/>
<use data-text="a" xlink:href="#font_3_6" transform="matrix(6.9738,0,0,-6.9738,267.01313,138.958)" fill="#d9d9d9"/>
<use data-text="R" xlink:href="#font_3_4" transform="matrix(6.9738,0,0,-6.9738,270.71623,138.958)" fill="#d9d9d9"/>
<use data-text="I" xlink:href="#font_3_1" transform="matrix(6.9738,0,0,-6.9738,274.4193,138.958)" fill="#d9d9d9"/>
<use data-text="=" xlink:href="#font_2_12" transform="matrix(6.9738,0,0,-6.9738,280.81404,138.958)" fill="#d9d9d9"/>
<use data-text="0" xlink:href="#font_2_5" transform="matrix(6.9738,0,0,-6.9738,289.61497,138.958)" fill="#d9d9d9"/>
<use data-text="." xlink:href="#font_2_3" transform="matrix(6.9738,0,0,-6.9738,293.59004,138.958)" fill="#d9d9d9"/>
<use data-text="4" xlink:href="#font_2_7" transform="matrix(6.9738,0,0,-6.9738,295.84257,138.958)" fill="#d9d9d9"/>
<use data-text="3" xlink:href="#font_2_6" transform="matrix(6.9738,0,0,-6.9738,299.81764,138.958)" fill="#d9d9d9"/>
<use data-text="M" xlink:href="#font_3_2" transform="matrix(6.9738,0,0,-6.9738,362.522,138.958)" fill="#d9d9d9"/>
<use data-text="a" xlink:href="#font_3_6" transform="matrix(6.9738,0,0,-6.9738,366.2251,138.958)" fill="#d9d9d9"/>
<use data-text="R" xlink:href="#font_3_4" transform="matrix(6.9738,0,0,-6.9738,369.9282,138.958)" fill="#d9d9d9"/>
<use data-text="I" xlink:href="#font_3_1" transform="matrix(6.9738,0,0,-6.9738,373.6313,138.958)" fill="#d9d9d9"/>
<use data-text="=" xlink:href="#font_2_12" transform="matrix(6.9738,0,0,-6.9738,380.026,138.958)" fill="#d9d9d9"/>
<use data-text="0" xlink:href="#font_2_5" transform="matrix(6.9738,0,0,-6.9738,388.82695,138.958)" fill="#d9d9d9"/>
<use data-text="." xlink:href="#font_2_3" transform="matrix(6.9738,0,0,-6.9738,392.802,138.958)" fill="#d9d9d9"/>
<use data-text="7" xlink:href="#font_2_9" transform="matrix(6.9738,0,0,-6.9738,395.05455,138.958)" fill="#d9d9d9"/>
<use data-text="9" xlink:href="#font_2_10" transform="matrix(6.9738,0,0,-6.9738,399.0296,138.958)" fill="#d9d9d9"/>
</svg>
